<svg width="53" height="65" viewBox="0 0 53 65" fill="none" xmlns="http://www.w3.org/2000/svg">
    <g clip-path="url(#clip0_1_197)">
        <path d="M52.4969 63.0448C52.4969 63.872 51.7837 64.5489 50.9124 64.5489H2.088C1.21669 64.5489 0.503479 63.872 0.503479 63.0448V1.9552C0.503479 1.12797 1.21669 0.451538 2.088 0.451538H50.9124C51.7837 0.451538 52.4969 1.12797 52.4969 1.9552V63.0448Z"
              fill="white"/>
        <path d="M52.0213 63.0448C52.0213 63.6255 51.5233 64.0978 50.912 64.0978H2.08801C1.47668 64.0978 0.978664 63.6255 0.978664 63.0448V1.9552C0.978664 1.37453 1.47668 0.9022 2.08801 0.9022H50.9124C51.5238 0.9022 52.0218 1.37453 52.0218 1.9552V63.0448H52.0213ZM52.9721 1.9552C52.9721 0.877067 52.0478 0 50.912 0H2.08801C0.952164 0 0.0278625 0.877067 0.0278625 1.9552V63.0448C0.0278625 64.1225 0.952164 65 2.08801 65H50.9124C52.0478 65 52.9726 64.1229 52.9726 63.0448V1.9552H52.9721Z"
              fill="#0071B5"/>
        <path d="M5.65591 19.4987C5.5723 19.5169 5.50331 19.5121 5.44802 19.4857C5.3169 19.4224 5.24608 19.3418 5.23694 19.2426C5.22734 19.1646 5.25841 19.0623 5.32832 18.9371C5.36807 18.8665 5.44026 18.8218 5.54443 18.8036C5.6486 18.7859 5.73815 18.7971 5.81309 18.8366C5.9433 18.9046 6.026 19.0069 6.06301 19.1429C6.10047 19.2786 6.08631 19.406 6.02052 19.5251C5.87157 19.7973 5.61388 19.9455 5.23831 19.9771C4.92168 20.0009 4.60048 19.945 4.277 19.8003C3.93615 19.6486 3.65836 19.4038 3.4523 19.0584C3.20923 18.6589 3.18776 18.2702 3.38651 17.917C3.55693 17.8559 3.72827 17.7966 3.89869 17.7402C3.71684 18.1376 3.71456 18.5129 3.88681 18.8491C4.0449 19.1572 4.29116 19.3839 4.61693 19.5351C4.79466 19.6183 4.97468 19.6612 5.15561 19.6677C5.38223 19.6785 5.54809 19.6222 5.65591 19.4983V19.4987Z"
              fill="#0071B5"/>
        <path d="M5.02949 15.993C5.85556 16.5182 6.68118 17.0439 7.5077 17.5686C7.21163 17.5591 6.91419 17.5548 6.61493 17.5552C6.11508 17.566 5.71027 17.7766 5.42014 18.184C5.18849 18.2091 4.95639 18.2368 4.72383 18.2689C4.67129 17.5899 4.73297 16.9494 4.89745 16.3674C4.86867 16.3497 4.83943 16.3315 4.81018 16.3137C4.46112 16.832 4.12758 17.3684 3.81141 17.9222C3.63596 17.979 3.46051 18.0384 3.28461 18.1008C3.80775 17.1518 4.37979 16.2517 4.99431 15.4024C5.17387 15.3656 5.35206 15.3309 5.53071 15.298C5.36029 15.5263 5.19306 15.7577 5.02904 15.993H5.02949ZM5.35663 16.65C5.2817 16.9481 5.24424 17.293 5.24972 17.6809C5.62118 17.4278 6.00314 17.2995 6.38922 17.2852C6.04518 17.0733 5.70068 16.8619 5.35663 16.65Z"
              fill="#0071B5"/>
        <path d="M6.78535 13.7518C7.54517 14.362 8.30454 14.9721 9.0639 15.5822C8.8551 15.5744 8.64538 15.5697 8.43475 15.5675C8.06147 15.2668 7.68955 14.966 7.31673 14.6644C7.16823 14.544 6.95943 14.4803 6.68986 14.4768C6.42029 14.4738 6.22246 14.5505 6.10047 14.7026C5.94604 14.8963 5.90537 15.0939 5.97802 15.2897C6.01 15.2026 6.04975 15.1285 6.09681 15.0679C6.20373 14.9309 6.32617 14.8456 6.46187 14.8113C6.61356 14.7732 6.7584 14.807 6.89547 14.9101C7.07503 15.044 7.20204 15.392 7.30348 15.9397C7.10929 15.9549 6.91466 15.9735 6.71865 15.9943C6.71956 15.8968 6.70129 15.7473 6.66748 15.5432C6.62818 15.3049 6.59163 15.1693 6.55234 15.1415C6.5135 15.1125 6.47147 15.1259 6.42852 15.181C6.40887 15.2061 6.38648 15.2941 6.36318 15.4462C6.33988 15.5974 6.31155 15.6962 6.27774 15.7413C6.2188 15.8197 6.13017 15.8617 6.01092 15.8678C5.89167 15.8747 5.79023 15.85 5.70617 15.7946C5.5065 15.6611 5.40964 15.4626 5.42198 15.1966C5.43477 14.9634 5.52341 14.742 5.68423 14.5383C5.89304 14.2753 6.13565 14.1379 6.40385 14.1249C6.52081 14.121 6.67067 14.1444 6.85298 14.1943C6.73829 14.1167 6.62316 14.0391 6.50848 13.9607C6.27454 13.7999 6.03787 13.6266 5.79709 13.4385C5.92456 13.4195 6.05112 13.4008 6.17814 13.3835C6.19916 13.4112 6.21972 13.4394 6.24073 13.4676C6.36501 13.5659 6.46964 13.5651 6.55691 13.4676C6.67204 13.3371 6.74378 13.2535 6.76936 13.2154C6.95349 13.1959 7.13717 13.1785 7.31992 13.1625C7.13854 13.3553 6.96035 13.5516 6.7849 13.751L6.78535 13.7518Z"
              fill="#0071B5"/>
        <path d="M9.22565 13.64C9.24667 13.6998 9.23616 13.7861 9.19412 13.8996C9.153 14.0131 9.10868 14.0946 9.06117 14.1436C8.96522 14.2424 8.85145 14.2965 8.71804 14.3061C8.58462 14.3156 8.45989 14.2731 8.34612 14.1765C8.21728 14.0673 8.1588 13.9364 8.17342 13.7843C8.18667 13.6483 8.252 13.5174 8.3708 13.3969C8.41649 13.3501 8.45852 13.3185 8.49598 13.3012C8.36942 13.2028 8.25246 13.1586 8.14509 13.166C8.06285 13.1725 7.94679 13.2158 7.79785 13.3016C7.61555 13.4086 7.46888 13.4788 7.35786 13.5087C7.2715 13.5304 7.14083 13.5378 6.96492 13.5295C6.78856 13.5213 6.62042 13.5326 6.46051 13.5629C7.16961 12.7534 7.92167 11.999 8.71118 11.2996C8.89486 11.3 9.07807 11.3022 9.25992 11.307C9.04472 11.4916 8.83272 11.6801 8.62392 11.8725C9.29784 12.5381 9.9713 13.2032 10.6457 13.8688C10.5479 13.8602 10.4501 13.8519 10.3519 13.845C9.90551 13.5833 9.52766 13.5144 9.22519 13.64H9.22565ZM8.358 12.1333C8.09072 12.3877 7.828 12.6477 7.5694 12.9155C7.87278 12.8752 8.11082 12.8704 8.2849 12.8934C8.5435 12.9315 8.75824 13.0347 8.93095 13.1959C8.95699 13.2201 8.98258 13.244 9.00908 13.2682C9.14798 13.2678 9.34079 13.2808 9.58568 13.3116C9.17676 12.9194 8.76738 12.5259 8.35755 12.1338L8.358 12.1333Z"
              fill="#0071B5"/>
        <path d="M12.1895 11.96C12.11 11.9405 12.0516 11.9058 12.0132 11.8603C11.9223 11.7503 11.8903 11.651 11.9191 11.5626C11.9392 11.4933 12.0036 11.4179 12.1114 11.3403C12.1726 11.2974 12.2521 11.2901 12.3495 11.3187C12.4468 11.3486 12.5208 11.3962 12.572 11.4617C12.6597 11.5756 12.6944 11.6987 12.6771 11.8304C12.6588 11.9626 12.5998 12.0653 12.4984 12.1385C12.2681 12.3071 11.9894 12.3227 11.6504 12.1875C11.3658 12.0709 11.1067 11.8855 10.8773 11.6246C10.6361 11.349 10.4835 11.0227 10.431 10.6409C10.3652 10.1972 10.4894 9.85921 10.7937 9.64081C10.9655 9.66204 11.1364 9.68371 11.3064 9.70841C11.0002 9.97187 10.86 10.2899 10.8865 10.6496C10.9107 10.9802 11.0427 11.2779 11.2707 11.5462C11.3959 11.6926 11.5366 11.807 11.692 11.8898C11.8857 11.996 12.0511 12.0194 12.1905 11.96H12.1895Z"
              fill="#0071B5"/>
        <path d="M12.8895 8.71001C13.3948 9.47614 13.9011 10.2423 14.4073 11.0088C14.2652 10.9997 14.0829 10.9313 13.8558 10.8047C13.6091 10.6639 13.4053 10.5833 13.2468 10.5586C12.9772 10.5179 12.693 10.5811 12.402 10.7519C12.1895 10.6795 11.9748 10.611 11.7582 10.5443C11.9615 9.92508 12.254 9.40118 12.6181 8.98431C12.6003 8.95788 12.582 8.93144 12.5642 8.90544C12.0872 9.19664 11.6193 9.50388 11.1606 9.82758C10.9829 9.80374 10.8038 9.78251 10.6237 9.76301C11.4064 9.19404 12.2174 8.67144 13.0517 8.19608C13.2294 8.23508 13.4049 8.27494 13.5799 8.31698C13.3478 8.44438 13.1175 8.57524 12.8895 8.71044V8.71001ZM13.43 11.3109C13.3619 11.3546 13.282 11.3681 13.1901 11.3499C13.0983 11.3317 13.0252 11.2866 12.9717 11.2147C12.9178 11.1423 12.8954 11.066 12.9055 10.9859C12.916 10.9061 12.9548 10.8433 13.0225 10.7995C13.0901 10.7545 13.1691 10.7419 13.2591 10.7588C13.3482 10.7761 13.419 10.8216 13.4711 10.8949C13.5205 10.9659 13.5424 11.0431 13.5351 11.1254C13.5282 11.2077 13.4931 11.2693 13.43 11.3109ZM12.8977 9.39381C12.7067 9.62608 12.5459 9.91338 12.4212 10.2522C12.8488 10.1846 13.2427 10.2436 13.5968 10.4195C13.3638 10.0772 13.1307 9.73528 12.8977 9.39381Z"
              fill="#0071B5"/>
        <path d="M13.8389 8.17569C14.3333 8.99989 14.8281 9.82322 15.3225 10.6474C15.1667 10.5881 15.009 10.53 14.8505 10.4741C14.4941 9.89862 14.1377 9.32315 13.7814 8.74769C13.7041 8.62245 13.5963 8.54575 13.457 8.51759C13.3181 8.49029 13.1801 8.52365 13.0467 8.61942C12.8762 8.58215 12.7049 8.54619 12.5327 8.51195C12.6514 8.41879 12.7437 8.35292 12.8091 8.31479C13.0704 8.16269 13.313 8.15272 13.5301 8.28055C13.3829 8.10115 13.2226 7.87365 13.0508 7.59589C13.1376 7.60542 13.2244 7.61539 13.3107 7.62535C13.3912 7.71419 13.4437 7.77009 13.4679 7.79262C13.5136 7.82555 13.5684 7.85285 13.6333 7.87495C13.7695 7.80259 13.9052 7.73109 14.0418 7.66045C14.2122 7.70855 14.3817 7.75795 14.5499 7.80952C14.3114 7.92739 14.0742 8.05002 13.8394 8.17612L13.8389 8.17569Z"
              fill="#0071B5"/>
        <path d="M16.1961 9.61306C16.0946 9.56669 16.0225 9.50299 15.9795 9.42283C15.9366 9.34266 15.9329 9.25686 15.9699 9.16629C16.0074 9.07616 16.0659 9.01289 16.1444 8.97693C16.2075 8.94833 16.2692 8.94573 16.3309 8.97086C16.4675 8.97909 16.5694 9.05406 16.6383 9.19273C16.7014 9.32056 16.7083 9.44493 16.6612 9.56409C16.6137 9.68456 16.5342 9.76993 16.4213 9.82193C16.1673 9.93936 15.8954 9.89863 15.5962 9.69973C15.3449 9.53376 15.1329 9.30713 14.9656 9.01376C14.7509 8.63806 14.6819 8.19866 14.7838 7.69383C14.5608 7.80129 14.3402 7.91266 14.1204 8.02663C13.95 7.97896 13.7782 7.93303 13.605 7.88969C14.2218 7.55819 14.8501 7.25139 15.4888 6.96973C15.6583 7.02693 15.8264 7.08499 15.9937 7.14479C15.4915 7.31986 15.2142 7.65656 15.1754 8.12976C15.1498 8.43743 15.237 8.76503 15.4294 9.11299C15.5107 9.26076 15.63 9.38816 15.7849 9.49649C15.9489 9.61133 16.085 9.64946 16.1965 9.61176L16.1961 9.61306Z"
              fill="#0071B5"/>
        <path d="M18.4942 7.41217C18.4248 7.26743 18.3033 7.1617 18.1301 7.09887C17.9565 7.03733 17.7975 7.03517 17.6577 7.09583C17.6476 7.09973 17.638 7.10277 17.628 7.10623C17.9021 7.78267 18.1767 8.45867 18.4513 9.1351C18.3764 9.09783 18.3019 9.061 18.227 9.0246C17.7723 8.47383 17.2391 8.2758 16.6561 8.4487C16.4629 8.34687 16.2669 8.24677 16.0686 8.1484C16.324 7.62017 16.6813 7.17643 17.1277 6.8302C17.1108 6.7912 17.0943 6.7522 17.0774 6.71277C16.5684 6.903 16.0645 7.10883 15.5669 7.33027C15.3978 7.2735 15.2274 7.21803 15.0561 7.1656C16.149 6.6599 17.273 6.2296 18.4202 5.87427C18.5765 5.9514 18.7309 6.0294 18.8844 6.10913C18.3914 6.25473 17.9021 6.41463 17.4182 6.58797C17.4297 6.617 17.442 6.64647 17.4534 6.67593C17.7097 6.58363 17.9807 6.61873 18.258 6.7795C18.5244 6.9381 18.7017 7.15173 18.7967 7.41607C18.8456 7.55257 18.8456 7.68387 18.7994 7.80953C18.7528 7.93607 18.6688 8.0184 18.5463 8.05957C18.4563 8.09033 18.3622 8.08557 18.2617 8.04397C18.1612 8.0028 18.0913 7.93433 18.0529 7.83683C18.0104 7.73023 18.025 7.6141 18.0999 7.48713C18.1534 7.4451 18.2032 7.4165 18.248 7.40133C18.3325 7.37273 18.4147 7.37663 18.4947 7.41173L18.4942 7.41217ZM17.3077 7.2566C17.1162 7.4334 16.9243 7.66827 16.7384 7.96337C17.1226 7.98417 17.4626 8.1055 17.7564 8.31957C17.6069 7.96553 17.4566 7.6115 17.3077 7.2566Z"
              fill="#0071B5"/>
        <path d="M20.5233 5.6784C20.7605 6.5819 20.9971 7.48497 21.2338 8.3889C21.0565 8.26107 20.8651 8.09077 20.6567 7.87887C20.5041 7.72113 20.3684 7.62017 20.251 7.57597C20.0774 7.51053 19.838 7.50837 19.536 7.57597C19.3633 7.4516 19.1883 7.32853 19.0115 7.2072C19.175 6.8731 19.3482 6.5871 19.5246 6.3518C19.4236 6.31107 19.2678 6.2985 19.0576 6.3167C18.8602 6.33533 18.6944 6.31497 18.56 6.253C18.4152 6.18887 18.2366 6.10393 18.0232 5.99993C18.9662 5.69227 19.9243 5.43487 20.8934 5.22903C21.0392 5.32003 21.1831 5.41233 21.3256 5.5055C21.0574 5.5588 20.7897 5.61643 20.5233 5.67753V5.6784ZM20.2003 8.38587C20.1199 8.40753 20.0404 8.3967 19.9591 8.3512C19.8777 8.307 19.822 8.2394 19.7928 8.14927C19.7653 8.06477 19.7695 7.98417 19.8055 7.9079C19.8421 7.83163 19.8988 7.7831 19.9755 7.7623C20.0578 7.73977 20.1395 7.75017 20.2209 7.79437C20.3022 7.83857 20.3557 7.90487 20.3817 7.99283C20.4082 8.0808 20.4032 8.1627 20.3684 8.23983C20.3337 8.31567 20.278 8.3642 20.2003 8.38543V8.38587ZM20.1574 5.7655C19.907 5.8266 19.6571 5.89117 19.4085 5.95963C19.5894 6.03417 19.8266 6.16937 20.1121 6.36913C20.002 6.55243 19.8649 6.80073 19.7091 7.11533C20.0678 7.15347 20.3826 7.2943 20.6494 7.53307C20.4854 6.94373 20.3214 6.3544 20.1574 5.7655Z"
              fill="#0071B5"/>
        <path d="M21.6039 5.45175C21.804 6.37908 22.0032 7.30598 22.2033 8.23331C22.0763 8.13105 21.947 8.02965 21.8168 7.92868C21.6669 7.27825 21.5171 6.62695 21.3672 5.97608C21.3348 5.83481 21.2585 5.72908 21.1369 5.66148C21.0154 5.59388 20.8756 5.58435 20.7203 5.63461C20.5731 5.54795 20.4242 5.46301 20.2734 5.37851C20.4146 5.32608 20.5215 5.29228 20.5946 5.27581C20.8875 5.21081 21.1178 5.27321 21.2804 5.45911C21.1995 5.24591 21.1228 4.98201 21.0501 4.66785C21.1287 4.70295 21.2064 4.73805 21.2841 4.77358C21.3311 4.88191 21.3622 4.95038 21.3782 4.97855C21.4106 5.02361 21.4531 5.06608 21.507 5.10595C21.6569 5.07778 21.8077 5.05048 21.958 5.02448C22.1028 5.12025 22.2458 5.21731 22.387 5.31525C22.1252 5.35771 21.8639 5.40278 21.6034 5.45175H21.6039Z"
              fill="#0071B5"/>
        <path d="M25.2824 4.11493C25.0297 3.99966 24.7642 3.95286 24.4928 3.97496C24.2434 3.9949 24.0401 4.06553 23.8875 4.186C23.696 4.33506 23.6051 4.4668 23.6106 4.57946C23.6485 4.64446 23.6869 4.70946 23.7253 4.77533C23.8957 4.75626 24.0666 4.73893 24.2374 4.72333C24.3741 4.8308 24.5093 4.9387 24.6418 5.0479C24.3882 5.0674 24.1346 5.0908 23.8815 5.11723C23.9907 6.0229 24.0999 6.929 24.2091 7.83423C24.0844 7.73023 23.9578 7.62753 23.8299 7.52656C23.7225 6.73746 23.6151 5.94836 23.5078 5.1597C23.3849 5.174 23.262 5.1896 23.1395 5.20563C23.0006 5.10423 22.8599 5.00326 22.7178 4.9036C22.9508 4.8698 23.1848 4.8386 23.4182 4.81043C23.2652 4.7021 23.1802 4.60373 23.1669 4.51316C23.1386 4.32076 23.2323 4.11883 23.4561 3.91213C23.6385 3.74226 23.8861 3.64173 24.1949 3.614C24.7921 3.56026 25.397 3.78776 25.9586 4.2926C26.002 4.39963 26.0449 4.5071 26.087 4.61413C25.6529 4.31946 25.3774 4.1574 25.2828 4.11536L25.2824 4.11493Z"
              fill="#0071B5"/>
        <path d="M26.2729 4.966C26.2957 5.9085 26.3181 6.85143 26.3405 7.7935C26.1943 7.55733 26.0435 7.32203 25.8886 7.08803C25.6218 6.70366 25.2508 6.50476 24.7939 6.50173C24.6569 6.3336 24.5175 6.1659 24.375 5.9995C24.8606 5.58393 25.381 5.27453 25.9151 5.07476C25.9142 5.04226 25.9129 5.00933 25.9115 4.9764C25.3303 4.9959 24.751 5.0336 24.1725 5.0882C24.0405 4.98116 23.9071 4.87543 23.7709 4.7697C24.7478 4.6644 25.7306 4.6085 26.7133 4.60373C26.8358 4.72203 26.956 4.84163 27.0752 4.96123C26.8075 4.9595 26.5406 4.96123 26.2729 4.96643V4.966ZM25.9348 5.5939C25.6661 5.7031 25.3824 5.86733 25.0895 6.08746C25.472 6.23913 25.7689 6.4662 25.9796 6.75956C25.9645 6.37086 25.9499 5.9826 25.9348 5.5939Z"
              fill="#0071B5"/>
        <path d="M29.1153 5.04875C29.033 5.96308 28.9503 6.87742 28.8672 7.79175C28.7667 7.66652 28.6643 7.54128 28.5597 7.41692C28.6058 6.86528 28.6515 6.31322 28.6981 5.76158C28.7073 5.67795 28.6629 5.55835 28.5606 5.40322C28.4592 5.24852 28.3673 5.16922 28.2897 5.16488C28.2476 5.16272 28.1978 5.17485 28.1421 5.20042C28.0863 5.22555 28.0535 5.25588 28.0429 5.28968C28.1727 5.39628 28.2559 5.47342 28.2961 5.52282C28.3783 5.62465 28.4153 5.73255 28.408 5.84868C28.3906 6.10522 28.2581 6.22568 28.0096 6.21485C27.8602 6.20878 27.7359 6.12602 27.6349 5.96655C27.5225 6.13945 27.3804 6.22308 27.2045 6.22092C27.1049 6.21962 27.0213 6.17758 26.9523 6.09438C26.8833 6.01118 26.8482 5.91498 26.8482 5.80492C26.8477 5.67882 26.892 5.55705 26.9816 5.43962C27.0711 5.32218 27.1753 5.24245 27.2918 5.19998C27.2356 5.07692 27.1525 5.00195 27.0423 4.97595C26.993 4.96338 26.8422 4.95688 26.5905 4.96252C26.4657 4.84465 26.3396 4.72722 26.2117 4.61065C26.4465 4.60545 26.6814 4.60285 26.9158 4.60328C27.0464 4.60328 27.1726 4.64575 27.2923 4.72895C27.4115 4.81215 27.4933 4.91485 27.5394 5.03402C27.7181 4.75625 27.9438 4.62192 28.2083 4.63448C28.3628 4.64142 28.5716 4.88018 28.811 5.35382C28.8009 4.89665 28.8028 4.49278 28.8206 4.14178C28.9225 4.23625 29.0043 4.32205 29.0687 4.39918C29.0737 4.56038 29.2405 4.66742 29.5658 4.72938C29.6782 4.85982 29.7883 4.99025 29.8979 5.12155C29.6366 5.09382 29.3762 5.06955 29.1148 5.04875H29.1153Z"
              fill="#0071B5"/>
        <path d="M28.6753 7.42864C28.5611 7.02217 28.3185 6.80637 27.9616 6.7912C27.905 6.60877 27.8479 6.42677 27.7894 6.2439C27.9223 6.14554 28.0905 6.04154 28.2961 5.93667C28.5446 5.80884 28.7064 5.72217 28.7763 5.67407C28.8206 5.64287 28.9261 5.56834 29.0947 5.45264C29.0312 6.1542 28.9668 6.85707 28.9033 7.55907C28.8274 7.51487 28.752 7.47197 28.6757 7.42864H28.6753ZM28.7086 6.17674C28.5958 6.23524 28.4555 6.32104 28.291 6.43414C28.3673 6.47314 28.4432 6.53857 28.5177 6.6313C28.5442 6.66467 28.5908 6.73314 28.6575 6.83844C28.6748 6.6183 28.6913 6.3973 28.7086 6.17674Z"
              fill="#0071B5"/>
        <path d="M31.7657 4.4824C31.5483 4.31513 31.3024 4.21113 31.032 4.17257C30.7843 4.13747 30.5696 4.1626 30.3905 4.24537C30.1675 4.3485 30.046 4.4564 30.0227 4.56733C30.0437 4.6397 30.0647 4.7112 30.0853 4.7827C30.2561 4.8022 30.4261 4.82257 30.5965 4.84467C30.703 4.97857 30.8072 5.11377 30.9095 5.24853C30.6568 5.21257 30.4051 5.17963 30.1511 5.15017C30.0314 6.05453 29.9116 6.95933 29.7915 7.86327C29.6955 7.73587 29.5982 7.60803 29.4991 7.48107C29.5918 6.69023 29.685 5.8994 29.7778 5.10943C29.6549 5.09687 29.5311 5.08517 29.4081 5.0739C29.299 4.94433 29.1875 4.81563 29.0742 4.6878C29.309 4.706 29.5438 4.72637 29.7778 4.7502C29.6562 4.61153 29.5982 4.4967 29.6083 4.40613C29.6284 4.21243 29.77 4.0365 30.0391 3.88483C30.2589 3.75917 30.5253 3.7154 30.8318 3.7557C31.4263 3.83457 31.9585 4.18773 32.3803 4.8022C32.3953 4.91617 32.4104 5.02927 32.425 5.14323C32.0746 4.76103 31.8471 4.54393 31.7653 4.48197L31.7657 4.4824Z"
              fill="#0071B5"/>
        <path d="M32.5192 5.5276C32.3058 6.44886 32.0915 7.3697 31.8777 8.29096C31.7945 8.02923 31.7063 7.76706 31.6136 7.50576C31.45 7.07286 31.1389 6.79813 30.6943 6.69586C30.6034 6.50173 30.5083 6.30846 30.4119 6.11563C30.989 5.81793 31.5725 5.63203 32.1431 5.55403C32.1504 5.5224 32.1568 5.48946 32.1637 5.45783C31.5935 5.3495 31.0196 5.25806 30.4426 5.1857C30.3411 5.05223 30.2374 4.92006 30.1323 4.78833C31.1083 4.89926 32.0792 5.06046 33.0391 5.2715C33.1291 5.41363 33.2173 5.5562 33.3032 5.69876C33.0423 5.63766 32.781 5.58046 32.5192 5.5276ZM32.0326 6.0632C31.7438 6.11086 31.4258 6.20793 31.0859 6.35873C31.4203 6.58883 31.6533 6.87483 31.7854 7.20676C31.8676 6.825 31.9503 6.4441 32.033 6.0632H32.0326Z"
              fill="#0071B5"/>
        <path d="M33.6376 5.77893C33.5494 6.09179 33.4613 6.40509 33.374 6.71796C33.7582 6.55329 33.9798 6.47053 34.0246 6.45623C34.2759 6.37043 34.5071 6.31713 34.715 6.29676C34.8434 6.46706 34.9686 6.63866 35.0901 6.81156C34.6935 7.18379 34.445 7.55386 34.3243 7.91006C34.2686 8.07213 34.2101 8.36029 34.142 8.77586C34.0762 8.70783 34.0104 8.64023 33.9428 8.57306C34.0086 8.05609 34.0735 7.67909 34.1503 7.44509C34.2069 7.27046 34.2882 7.08629 34.3965 6.88999C33.8994 6.94329 33.4887 7.19506 33.1698 7.63013C33.0802 7.46199 32.987 7.29429 32.892 7.12659C33.019 6.64863 33.1455 6.16936 33.2721 5.69096C33.1213 5.65586 32.9706 5.62206 32.8198 5.58956C32.727 5.44743 32.632 5.30573 32.536 5.16446C33.5549 5.36986 34.5619 5.63073 35.5525 5.94706C35.6333 6.09916 35.7128 6.25083 35.7901 6.40293C35.081 6.16546 34.3627 5.95703 33.6381 5.77806L33.6376 5.77893Z"
              fill="#0071B5"/>
        <path d="M36.7157 6.7132C36.5567 6.6469 36.405 6.63174 36.262 6.66814C36.1085 6.70367 36.0062 6.7899 35.9527 6.9251C35.8947 7.072 35.8335 7.3008 35.7668 7.61194C35.6991 7.92307 35.6356 8.15014 35.5771 8.29314C35.5027 8.4812 35.3496 8.63894 35.1257 8.77154C34.9019 8.905 34.7095 8.94487 34.5441 8.892C34.4349 8.8569 34.3979 8.7893 34.4344 8.68877C34.4536 8.63504 34.5546 8.6086 34.7387 8.6125C34.9402 8.55834 35.0869 8.42054 35.1737 8.1939C35.2139 8.08774 35.2477 7.9157 35.2724 7.6778C35.2962 7.44034 35.3281 7.26614 35.3688 7.15694C35.4268 7.00354 35.5109 6.86964 35.6251 6.75827C35.6854 6.70194 35.8102 6.60704 36.0034 6.4766C35.7869 6.40207 35.5689 6.33057 35.3501 6.2608C35.2701 6.11 35.1888 5.9592 35.1043 5.80884C35.6694 5.97914 36.2291 6.1672 36.7829 6.3739C36.8565 6.52904 36.9277 6.68547 36.9972 6.84104C36.9035 6.7977 36.8099 6.7548 36.7157 6.7132Z"
              fill="#0071B5"/>
        <path d="M37.2996 6.96062C36.9031 7.83075 36.5078 8.70045 36.1122 9.57058C36.0683 9.41805 36.0226 9.26508 35.9756 9.11255C36.2451 8.49722 36.5151 7.88102 36.7852 7.26525C36.8437 7.13178 36.8441 7.00395 36.7843 6.88262C36.7249 6.76215 36.6148 6.68025 36.4548 6.63822C36.3849 6.48828 36.3137 6.33878 36.2406 6.18928C36.3886 6.22048 36.4992 6.24995 36.5691 6.27552C36.8514 6.37822 37.0049 6.55372 37.0269 6.79378C37.089 6.57538 37.1859 6.31668 37.3156 6.01898C37.359 6.09005 37.4029 6.16068 37.4458 6.23132C37.4189 6.34572 37.4038 6.41852 37.3992 6.45102C37.3992 6.50432 37.4098 6.56282 37.4289 6.62435C37.5715 6.68112 37.7127 6.73962 37.8539 6.79898C37.916 6.95542 37.9763 7.11228 38.0348 7.26958C37.7908 7.16342 37.5459 7.05985 37.2996 6.96062Z"
              fill="#0071B5"/>
        <path d="M39.8359 8.14145C39.3566 8.94485 38.8778 9.74825 38.3985 10.5512C38.3597 10.3987 38.3185 10.2453 38.2756 10.0919C38.5264 9.65639 38.7773 9.22132 39.0281 8.78582C39.0656 8.72255 39.0706 8.64889 39.0445 8.56569C39.018 8.48249 38.9737 8.42572 38.9107 8.39365C38.812 8.34425 38.7293 8.38109 38.6621 8.50285C38.6407 8.54272 38.6155 8.60772 38.5872 8.69785C38.5173 8.69222 38.4474 8.68659 38.3775 8.68182C38.4259 8.53102 38.4223 8.39539 38.3679 8.27405C38.3135 8.15315 38.2281 8.06562 38.1157 8.01449C38.0051 7.96422 37.8923 7.95772 37.7771 7.99499C37.6629 8.03225 37.5779 8.10852 37.5222 8.22249C37.4573 8.35335 37.4815 8.46905 37.5907 8.56915C37.5921 8.52192 37.603 8.47729 37.6245 8.43525C37.6652 8.35379 37.731 8.29789 37.8223 8.26885C37.9133 8.23895 38.0001 8.24329 38.081 8.28055C38.1815 8.32692 38.24 8.41402 38.2559 8.54055C38.2692 8.65235 38.2468 8.76285 38.1879 8.87162C38.1381 8.96392 38.0503 9.01852 37.9265 9.03715C37.8182 9.05622 37.7177 9.04409 37.6231 9.00119C37.4249 8.91019 37.291 8.77325 37.2202 8.58779C37.1489 8.40232 37.1626 8.20082 37.2663 7.98329C37.3545 7.79652 37.4788 7.65612 37.6432 7.56035C37.8301 7.45072 38.0124 7.43512 38.1856 7.51355C38.3866 7.60455 38.5214 7.76835 38.584 8.00409C38.6375 7.96075 38.7115 7.92955 38.8038 7.90919C38.8961 7.88925 38.971 7.89229 39.0254 7.91915C39.188 7.99889 39.2689 8.15185 39.2671 8.37372C39.3452 8.23809 39.4238 8.10245 39.5019 7.96682C38.8723 7.64442 38.2308 7.34672 37.5793 7.07632C37.513 6.91772 37.4445 6.76042 37.3737 6.60312C38.4163 7.01912 39.4347 7.50099 40.4207 8.04785C40.4714 8.21382 40.5194 8.37935 40.5656 8.54532C40.3243 8.40665 40.0812 8.27275 39.8364 8.14232L39.8359 8.14145Z"
              fill="#0071B5"/>
        <path d="M41.965 9.40766C41.4017 10.1716 40.8383 10.936 40.2745 11.7004C40.2562 11.4885 40.2626 11.2381 40.2909 10.9486C40.3138 10.7354 40.3024 10.5712 40.2585 10.4576C40.1936 10.2891 40.0323 10.1157 39.7742 9.94413C39.7577 9.73829 39.7376 9.53246 39.7157 9.32576C40.0936 9.22263 40.4385 9.15806 40.7469 9.1299C40.7113 9.03066 40.6167 8.91019 40.4595 8.77196C40.3115 8.64283 40.216 8.51109 40.1744 8.37459C40.1278 8.22856 40.0757 8.04526 40.015 7.82556C40.8954 8.29313 41.7512 8.81183 42.5777 9.38123C42.6038 9.54676 42.6284 9.7123 42.6504 9.8774C42.4242 9.71663 42.1957 9.55976 41.9655 9.4068L41.965 9.40766ZM39.5754 10.9538C39.5042 10.9113 39.4589 10.8455 39.4397 10.7579C39.4201 10.6704 39.4361 10.5863 39.4886 10.5057C39.5384 10.4308 39.6051 10.3805 39.6906 10.3562C39.7769 10.3324 39.8532 10.3406 39.9231 10.3818C39.9962 10.4264 40.0433 10.4919 40.0629 10.5794C40.0831 10.6669 40.0657 10.7488 40.0131 10.826C39.9601 10.9027 39.8907 10.9529 39.8062 10.9781C39.7212 11.0036 39.6444 10.995 39.575 10.9534L39.5754 10.9538ZM41.6466 9.20053C41.4268 9.06013 41.2056 8.92319 40.9822 8.78973C41.0453 8.96869 41.0978 9.22739 41.1307 9.56496C40.9096 9.60656 40.6176 9.6707 40.2603 9.7656C40.4728 10.0481 40.5733 10.3675 40.5628 10.7172C40.9242 10.2115 41.2847 9.70623 41.6466 9.20053Z"
              fill="#0071B5"/>
        <path d="M41.0398 12.6217C40.8369 12.6784 40.6505 12.6862 40.4796 12.6429C40.4979 12.5788 40.5153 12.5155 40.5322 12.4514C40.6565 12.4644 40.7798 12.4553 40.9027 12.4241C41.0256 12.3929 41.1138 12.3452 41.1659 12.2806C41.1929 12.2486 41.1974 12.2269 41.1828 12.2152C41.1696 12.2061 41.1476 12.194 41.1188 12.181C41.0896 12.1667 41.069 12.1563 41.0581 12.1489C40.9914 12.1017 40.953 12.0375 40.9402 11.9587C40.9279 11.8794 40.9498 11.8031 41.0069 11.7299C41.1577 11.5362 41.329 11.5041 41.5177 11.6402C41.7576 11.8139 41.7512 12.0523 41.5036 12.3482C41.3985 12.4739 41.2431 12.564 41.0403 12.6221L41.0398 12.6217Z"
              fill="#0071B5"/>
        <path d="M45.8861 12.613C45.198 13.2379 44.5095 13.8628 43.8214 14.4881C43.799 14.3511 43.8296 14.1639 43.9114 13.9252C44.0042 13.6647 44.0435 13.4554 44.0343 13.3003C44.0174 13.0373 43.8899 12.7807 43.6501 12.5402C43.6789 12.3262 43.7049 12.1117 43.7287 11.8959C44.4135 11.9626 45.023 12.1385 45.5393 12.4059C45.5622 12.3847 45.5864 12.3617 45.6097 12.34C45.1999 11.9422 44.7781 11.5596 44.3459 11.1939C44.3331 11.0223 44.3171 10.8502 44.2998 10.6782C45.0523 11.2966 45.7742 11.9613 46.4614 12.6741C46.4609 12.8505 46.4591 13.0264 46.4545 13.2019C46.2676 13.0022 46.0785 12.8054 45.8861 12.6126V12.613ZM43.2909 13.6171C43.2297 13.5616 43.1991 13.4892 43.1977 13.3991C43.1968 13.3085 43.2279 13.231 43.2914 13.1664C43.3549 13.1018 43.4294 13.0654 43.5148 13.0602C43.6007 13.0546 43.6738 13.0789 43.7351 13.1348C43.7954 13.1898 43.8264 13.2622 43.8278 13.3501C43.8292 13.4381 43.7976 13.5131 43.7319 13.5768C43.6688 13.6379 43.593 13.6721 43.5057 13.6821C43.4184 13.6912 43.3462 13.6699 43.29 13.6179L43.2909 13.6171ZM45.1734 12.7487C44.8878 12.6109 44.5529 12.5134 44.1728 12.4614C44.3359 12.8509 44.3619 13.2362 44.2568 13.6062C44.5625 13.3202 44.8677 13.0342 45.1734 12.7487Z"
              fill="#0071B5"/>
        <path d="M45.8395 14.2081C45.7203 14.0768 45.6663 13.9204 45.675 13.7354C45.6837 13.5503 45.7577 13.3952 45.8994 13.2708C46.0319 13.1551 46.1963 13.101 46.3937 13.1118C46.5915 13.1218 46.7501 13.1924 46.8671 13.3211C46.9904 13.4567 47.043 13.6184 47.0238 13.8021C47.0046 13.9854 46.9187 14.1349 46.7702 14.2515C46.6295 14.3628 46.4664 14.4127 46.2827 14.4053C46.099 14.3979 45.9519 14.3325 45.8395 14.2081ZM44.9682 14.3022C45.1551 14.1414 45.3415 13.9806 45.5288 13.8199C45.5708 14.3884 45.49 15.1355 45.2428 16.0307C45.145 16.1044 45.0482 16.1776 44.9508 16.2509C45.044 15.629 45.0532 14.9764 44.9682 14.3022ZM46.6875 13.6717C46.6144 13.5902 46.5093 13.5473 46.3741 13.5456C46.2379 13.5438 46.1269 13.5811 46.0392 13.6548C45.9619 13.7206 45.9482 13.7804 45.9976 13.8337C46.0743 13.9174 46.1762 13.9642 46.3051 13.975C46.4339 13.9858 46.5449 13.9555 46.6372 13.8814C46.7291 13.8069 46.7469 13.7367 46.688 13.6712L46.6875 13.6717Z"
              fill="#0071B5"/>
        <path d="M48.4137 16.2214C48.6928 16.0004 49.0204 15.769 49.3964 15.5294C49.3946 15.6273 49.3928 15.7257 49.3901 15.824C49.3827 15.8401 49.3763 15.8565 49.3695 15.8726C49.3028 15.9215 49.2936 16.0203 49.3389 16.1703C49.3754 16.2903 49.4298 16.4021 49.5015 16.5087C49.4673 16.682 49.4303 16.8545 49.3914 17.0265C49.237 16.7791 49.0784 16.5351 48.9167 16.2955C48.1158 16.7886 47.3148 17.2822 46.5143 17.7758C46.5258 17.6579 46.5582 17.4963 46.6112 17.2878C47.021 17.0426 47.4304 16.7986 47.8407 16.5542C47.8818 16.5282 47.9312 16.4563 47.9874 16.338C48.0354 16.2318 48.0637 16.1473 48.0714 16.0862C47.6301 15.9948 47.1915 15.9181 46.7565 15.8548C46.7012 15.6849 46.645 15.5159 46.5865 15.3469C46.7273 15.3708 46.8451 15.3881 46.9397 15.3976C47.0224 15.4076 47.09 15.395 47.1403 15.3591C47.2623 15.2715 47.2997 15.1974 47.2522 15.1376C47.2289 15.1077 47.1741 15.0683 47.09 15.0202C47.0055 14.9721 46.9479 14.9301 46.9182 14.8932C46.878 14.8447 46.8639 14.7814 46.8753 14.703C46.8863 14.6254 46.9173 14.5665 46.969 14.5266C47.0078 14.4976 47.0654 14.4777 47.1417 14.4677C47.6506 14.4001 48.0619 14.5591 48.3529 14.9409C48.4891 15.1199 48.5599 15.3331 48.5622 15.5762C48.5681 15.8019 48.5183 16.0169 48.4137 16.2218V16.2214ZM47.4217 15.4722C47.6739 15.5155 47.9266 15.564 48.1811 15.6169C48.193 15.4717 48.1615 15.3491 48.087 15.2499C47.928 15.0393 47.7425 14.9396 47.5373 14.9496C47.5922 15.0354 47.6072 15.1268 47.5817 15.2234C47.5574 15.3201 47.5031 15.4028 47.4217 15.4717V15.4722Z"
              fill="#0071B5"/>
        <path d="M46.0127 18.7183C46.014 18.6923 46.0154 18.6676 46.0159 18.6416C46.0643 18.5311 46.1091 18.3842 46.1484 18.2026C46.1877 18.021 46.2032 17.8741 46.1986 17.7632C45.9359 17.7121 45.7691 17.6401 45.6979 17.5405C45.6193 17.4308 45.5786 17.3199 45.575 17.2051C45.5718 17.069 45.6293 16.9589 45.7499 16.8762C45.8683 16.7943 45.9967 16.7696 46.136 16.8038C46.264 16.8337 46.3686 16.9052 46.4485 17.0161C46.5111 17.1037 46.5463 17.2285 46.5513 17.3901C46.5609 17.3871 46.6742 17.3108 46.8894 17.1591C46.9064 17.1682 46.9228 17.1778 46.9392 17.1869C47.0078 17.287 46.9671 17.407 46.8168 17.5452C46.7958 17.5656 46.7062 17.641 46.5486 17.7693C46.5358 17.9365 46.497 18.1094 46.4326 18.2858C46.3512 18.5137 46.2544 18.6572 46.1465 18.7196C46.1328 18.7274 46.1182 18.7356 46.104 18.7438C46.0734 18.7352 46.0428 18.7269 46.0122 18.7183H46.0127ZM46.21 17.4148C46.2224 17.3684 46.205 17.3117 46.1575 17.2454C46.0721 17.1262 46.0035 17.0846 45.9519 17.1184C45.9053 17.1496 45.9035 17.1934 45.9441 17.2493C45.9629 17.2757 46.0058 17.3125 46.0725 17.3606C46.1397 17.41 46.1826 17.4295 46.2023 17.42C46.205 17.4178 46.2082 17.4161 46.21 17.4152V17.4148Z"
              fill="#0071B5"/>
        <path d="M50.244 18.4921C49.3983 18.9042 48.5521 19.3167 47.7064 19.7288C47.7205 19.5832 47.8014 19.4042 47.9462 19.1889C48.1071 18.9553 48.2021 18.7564 48.2345 18.5978C48.288 18.3283 48.2318 18.0297 48.0596 17.7138C48.1459 17.5084 48.2295 17.3017 48.3104 17.0928C48.9674 17.3715 49.5207 17.7389 49.957 18.1727C49.9863 18.158 50.0155 18.1432 50.0443 18.1289C49.7473 17.5972 49.4344 17.0811 49.1068 16.5815C49.1397 16.406 49.1707 16.2292 49.1995 16.052C49.7747 16.9004 50.3084 17.7957 50.7945 18.7382C50.7466 18.9172 50.6977 19.0948 50.647 19.2721C50.5163 19.0086 50.382 18.7486 50.244 18.4925V18.4921ZM47.4153 18.6832C47.3706 18.6078 47.3605 18.525 47.3829 18.434C47.4062 18.343 47.4578 18.275 47.5378 18.2299C47.6173 18.1848 47.7004 18.1723 47.7868 18.1935C47.8727 18.2143 47.938 18.2615 47.9833 18.3365C48.028 18.411 48.0399 18.4938 48.0175 18.5826C47.9956 18.671 47.9435 18.7378 47.8626 18.7807C47.7841 18.8218 47.7 18.8331 47.6113 18.8149C47.5227 18.7967 47.4578 18.7525 47.4153 18.6832ZM49.5047 18.4019C49.2607 18.1723 48.956 17.969 48.596 17.7974C48.6517 18.2403 48.574 18.6359 48.3716 18.977C48.7495 18.785 49.1264 18.5935 49.5047 18.4019Z"
              fill="#0071B5"/>
        <path d="M26.7239 20.6687V20.6696C26.8984 20.504 31.0904 16.6521 37.5286 19.2339L37.6035 19.2634H37.6835C37.7922 19.2634 37.9704 19.2903 38.1769 19.3215C38.9851 19.4441 40.338 19.6495 42.4096 19.1477L41.9157 18.7828V48.3591L42.1469 48.0168C42.1291 48.0246 40.3175 48.7886 38.4483 48.3097L38.4789 48.3188C38.3423 48.272 38.16 48.1988 37.9494 48.1139C36.0701 47.3581 31.6711 45.5884 26.1824 48.7695L26.6279 48.7907C26.4269 48.6469 21.6308 45.295 14.8866 47.96L14.8514 47.9735L14.8194 47.9938C14.4973 48.1971 12.8036 48.4211 10.5735 48.1429L10.918 48.5151V18.8873L10.4625 19.2591C10.5552 19.2725 12.7515 19.5771 14.8807 19.2586L14.9026 19.2556L14.9231 19.2504L14.9748 19.2365C19.8764 17.966 23.85 18.4743 26.1642 20.6691L26.4447 20.9343L26.7248 20.6691L26.7239 20.6687ZM14.7564 18.5163C12.7506 18.8166 10.6014 18.5189 10.5799 18.5155L10.1253 18.4509V18.8868V48.5151V48.8449L10.4698 48.8887C12.5139 49.143 14.617 49.0252 15.259 48.6196L15.1913 48.6542C21.5198 46.153 26.1043 49.358 26.15 49.39L26.3652 49.5447L26.5955 49.4113C31.7365 46.4317 35.8732 48.0948 37.64 48.8059C37.8616 48.8952 38.0535 48.9719 38.2107 49.026L38.2262 49.0308L38.2413 49.0347C40.3938 49.5863 42.3922 48.7366 42.4763 48.7002L42.7079 48.5996V18.2992L42.214 18.4188C40.3015 18.8821 39.0496 18.6923 38.3021 18.5796C38.0517 18.5419 37.8543 18.512 37.6835 18.512L37.8383 18.5415C30.8958 15.7577 26.2103 20.0928 26.1637 20.137H26.7239C24.2 17.7437 19.9531 17.1661 14.7655 18.5111L14.7143 18.5246L14.7564 18.5159V18.5163Z"
              fill="#009E53"/>
        <path d="M26.7846 22.9108H25.9924V46.2687H26.7846V22.9108Z" fill="#EB2D2E"/>
        <path d="M18.8301 25.3617L33.3064 44.2594L33.947 43.8174L19.4711 24.9201L18.8301 25.3617Z" fill="#EB2D2E"/>
        <path d="M14.5551 31.3382L37.9779 38.5563L38.2223 37.8413L14.8 30.6237L14.5551 31.3382Z" fill="#EB2D2E"/>
        <path d="M37.9767 30.624L14.554 37.842L14.7988 38.5566L38.2215 31.3386L37.9767 30.624Z" fill="#EB2D2E"/>
        <path d="M19.4711 44.2594L33.947 25.3626L33.3064 24.9206L18.8301 43.8174L19.4711 44.2594Z" fill="#EB2D2E"/>
        <path d="M22.5606 24.3087L29.5032 44.9492L30.1063 44.7668L23.1642 24.1258L22.5606 24.3087Z" fill="#EB2D2E"/>
        <path d="M16.9417 28.3656L35.3501 41.1944L35.7256 40.7099L17.3173 27.8811L16.9417 28.3656Z" fill="#EB2D2E"/>
        <path d="M14.915 34.1804L14.9114 34.7814L37.7546 34.8924L37.7582 34.2914L14.915 34.1804Z" fill="#EB2D2E"/>
        <path d="M17.2424 41.1017L35.7947 28.4613L35.425 27.973L16.8723 40.6133L17.2424 41.1017Z" fill="#EB2D2E"/>
        <path d="M29.6215 24.1604L22.4451 44.7288L23.0471 44.9178L30.2236 24.3493L29.6215 24.1604Z" fill="#EB2D2E"/>
        <path d="M35.149 34.512C35.149 39.1005 31.227 42.8203 26.389 42.8203C21.5509 42.8203 17.6284 39.1005 17.6284 34.512C17.6284 29.9234 21.5504 26.2032 26.389 26.2032C31.2275 26.2032 35.149 29.923 35.149 34.512Z"
              fill="white"/>
        <path d="M34.1018 34.512C34.1018 38.5524 30.6486 41.8271 26.3885 41.8271C22.1284 41.8271 18.6747 38.5524 18.6747 34.512C18.6747 30.4716 22.1279 27.196 26.3885 27.196C30.6491 27.196 34.1018 30.4711 34.1018 34.512Z"
              fill="white"/>
        <path d="M33.6267 34.512C33.6267 38.2967 30.38 41.3764 26.389 41.3764C22.398 41.3764 19.1504 38.2971 19.1504 34.512C19.1504 30.7268 22.3975 27.6467 26.389 27.6467C30.3804 27.6467 33.6267 30.7264 33.6267 34.512ZM26.389 26.7449C21.8735 26.7449 18.1996 30.2285 18.1996 34.5115C18.1996 38.7946 21.873 42.2782 26.389 42.2782C30.9049 42.2782 34.5775 38.7942 34.5775 34.5115C34.5775 30.2289 30.904 26.7449 26.389 26.7449Z"
              fill="#EB2D2E"/>
        <path d="M35.3583 53.0595C35.3716 53.056 35.3821 53.0478 35.3889 53.0353C35.3958 53.0227 35.3995 53.0088 35.4004 52.9932C35.4013 52.9776 35.4013 52.9624 35.3995 52.9468C35.3981 52.9308 35.3976 52.9178 35.3976 52.907C35.3908 52.8264 35.3661 52.7653 35.3209 52.7228C35.2779 52.6804 35.2135 52.6712 35.1303 52.6933C35.086 52.705 35.0385 52.7302 34.9887 52.7679C34.9389 52.806 34.8932 52.8502 34.8521 52.9001C34.8105 52.9499 34.7767 53.0028 34.7507 53.0574C34.7242 53.1115 34.7118 53.1609 34.7141 53.2064L34.7182 53.2212C34.7726 53.2632 34.8169 53.3147 34.8503 53.3754C34.8836 53.4352 34.9028 53.5041 34.9083 53.5808C34.9142 53.6753 34.9028 53.7641 34.8745 53.8499C34.8466 53.9357 34.8046 54.0133 34.7511 54.0839C34.6963 54.1541 34.6305 54.2157 34.5528 54.2668C34.4761 54.3179 34.3929 54.3552 34.3029 54.3799C34.1649 54.4172 34.0356 54.418 33.915 54.3816C33.7948 54.3452 33.6829 54.2845 33.5787 54.1992C33.4755 54.1129 33.3795 54.0094 33.2922 53.8876C33.205 53.7663 33.1264 53.6389 33.0574 53.5063C32.988 53.3728 32.9258 53.2394 32.8724 53.1059C32.8194 52.9724 32.7737 52.852 32.7357 52.7445L32.9738 52.8039C32.9921 52.839 33.009 52.8719 33.0231 52.9044C33.0382 52.936 33.0515 52.9685 33.0633 52.9997C33.0944 53.0816 33.1328 53.1661 33.1767 53.2532C33.2214 53.3403 33.2712 53.4244 33.3274 53.5058C33.3836 53.5869 33.4458 53.6614 33.5148 53.7312C33.5838 53.8001 33.6582 53.8573 33.7386 53.9019C33.8191 53.947 33.9049 53.976 33.9982 53.9899C34.0904 54.0042 34.1887 53.9972 34.2929 53.9691C34.4034 53.9392 34.4925 53.8854 34.5615 53.8092C34.6305 53.7329 34.6611 53.6367 34.6538 53.521C34.652 53.4894 34.6424 53.4629 34.6246 53.4413C34.6067 53.4192 34.5853 53.3988 34.5606 53.3797C34.5368 53.4075 34.5094 53.4318 34.4788 53.4543C34.4482 53.4764 34.4158 53.492 34.3797 53.5015C34.2833 53.528 34.2088 53.521 34.1576 53.4816C34.1064 53.4421 34.0777 53.3754 34.0717 53.2805C34.069 53.2446 34.0726 53.2077 34.0822 53.17C34.0918 53.1323 34.1074 53.0972 34.1284 53.0647C34.1489 53.0326 34.1754 53.004 34.206 52.9785C34.2371 52.9533 34.2732 52.9351 34.3134 52.9247C34.3472 52.9152 34.3806 52.9118 34.4135 52.9126C34.4455 52.9135 34.4765 52.9182 34.5062 52.9247C34.5336 52.8979 34.5551 52.8697 34.5711 52.8398C34.5871 52.8103 34.5939 52.7809 34.5917 52.751C34.5898 52.7224 34.5775 52.699 34.5542 52.6799C34.5318 52.6613 34.5044 52.6457 34.472 52.6353C34.4404 52.6253 34.4057 52.6188 34.3696 52.6175C34.3321 52.6158 34.3002 52.6188 34.2718 52.6266C34.2325 52.637 34.1919 52.6535 34.1489 52.6747C34.1055 52.6964 34.0635 52.7219 34.0251 52.7514C33.9849 52.7809 33.9484 52.8142 33.9141 52.8502C33.8803 52.8862 33.8529 52.9234 33.8318 52.9624C33.8693 52.9785 33.8999 53.0032 33.9241 53.0361C33.9484 53.0695 33.9621 53.1098 33.9657 53.1579C33.9771 53.3095 33.9077 53.4053 33.7569 53.4452C33.6546 53.4729 33.5732 53.4655 33.5138 53.4231C33.4544 53.381 33.4202 53.307 33.4124 53.2047C33.4056 53.1024 33.4257 53.0028 33.4723 52.9057C33.5189 52.8086 33.5801 52.7193 33.6559 52.6374C33.7322 52.556 33.8172 52.4862 33.9118 52.4281C34.0059 52.3696 34.0978 52.3285 34.185 52.3051C34.3116 52.2709 34.4226 52.2665 34.5167 52.2929C34.6118 52.3198 34.6885 52.3891 34.7461 52.5014C34.747 52.5044 34.7488 52.5135 34.7525 52.53C34.7552 52.5456 34.758 52.5647 34.7612 52.5872C34.7635 52.6089 34.7662 52.6327 34.7703 52.6574C34.7735 52.6825 34.7772 52.705 34.7799 52.7258C34.8 52.6972 34.821 52.6691 34.8416 52.6418C34.8621 52.6136 34.8845 52.5876 34.9097 52.5625C34.9412 52.5278 34.9764 52.4979 35.0166 52.4719C35.0563 52.4459 35.1006 52.4264 35.1495 52.413C35.2208 52.3939 35.2861 52.3922 35.3446 52.4078C35.4031 52.4225 35.4538 52.4503 35.4968 52.4888C35.5397 52.527 35.574 52.5755 35.6 52.6318C35.6252 52.6881 35.6407 52.7479 35.6448 52.8125C35.6498 52.8693 35.6439 52.9321 35.6284 52.9993C35.6133 53.0665 35.5895 53.131 35.5562 53.1926C35.5237 53.2545 35.4812 53.3083 35.4301 53.3559C35.3794 53.4032 35.32 53.4352 35.2528 53.4539C35.2204 53.463 35.1856 53.4638 35.1495 53.4591C35.1144 53.4534 35.0801 53.4417 35.0499 53.4239C35.0198 53.4062 34.9933 53.3828 34.9723 53.3546C34.9512 53.326 34.9389 53.294 34.9357 53.2584C34.9357 53.2463 34.9366 53.2316 34.9398 53.2147C34.9421 53.1978 34.9462 53.1804 34.949 53.1653C34.9522 53.1488 34.9567 53.1323 34.9608 53.1172C34.9654 53.1011 34.9704 53.0868 34.9745 53.0729C35.0207 53.0075 35.0778 52.9655 35.1463 52.9468C35.2071 52.9304 35.2546 52.9373 35.2875 52.9681C35.3044 52.9806 35.3181 52.9967 35.3286 53.0166C35.3341 53.0227 35.3382 53.0292 35.3419 53.037C35.3455 53.0439 35.351 53.0526 35.3561 53.0617L35.3583 53.0595Z"
              fill="#009E53"/>
        <path d="M19.9189 53.3901C19.7265 53.4881 19.5497 53.537 19.3884 53.537C19.1874 53.537 19.0302 53.4846 18.9169 53.3789C18.804 53.2736 18.7478 53.1254 18.7478 52.9347C18.7478 52.8255 18.7789 52.7072 18.8415 52.5802C18.9041 52.4537 18.9795 52.3497 19.0681 52.2687H18.0844L17.7276 51.9393H21.7625L22.1239 52.2687H19.8047C19.8015 52.2947 19.8001 52.3233 19.8001 52.3549C19.8001 52.4472 19.8307 52.5651 19.8919 52.7094C19.9591 52.8645 20.0249 52.9425 20.0888 52.9425C20.1039 52.9425 20.1514 52.9078 20.2309 52.8394C20.4877 52.6088 20.7148 52.494 20.9131 52.494C21.0936 52.494 21.2475 52.5417 21.3759 52.6366C21.5194 52.738 21.5916 52.8706 21.5916 53.0348C21.5916 53.1817 21.5084 53.3117 21.3421 53.4244C21.4755 53.6319 21.5418 53.7866 21.5418 53.8872C21.5418 54.0258 21.476 54.1329 21.3444 54.207C21.2347 54.2681 21.1032 54.2984 20.951 54.2984C20.6394 54.2984 20.3922 54.1415 20.209 53.8278C20.1085 54.1415 19.8686 54.2984 19.4903 54.2984C19.0202 54.2984 18.6734 54.0813 18.4509 53.6471C18.3531 53.459 18.237 53.0417 18.1027 52.3965L18.4047 52.5356C18.4719 52.8948 18.534 53.1414 18.592 53.2744C18.6958 53.4946 18.8662 53.6753 19.1047 53.8174C19.2116 53.8815 19.2984 53.9132 19.3651 53.9132C19.493 53.9132 19.6178 53.8768 19.7402 53.8044C19.8805 53.7229 19.9509 53.6241 19.9509 53.508C19.9509 53.4677 19.9403 53.4283 19.9189 53.3906V53.3901ZM19.4263 52.5226C19.3564 52.5373 19.2824 52.6006 19.2034 52.715C19.1243 52.829 19.0846 52.9204 19.0846 52.9897C19.0846 53.1106 19.144 53.1713 19.2623 53.1713C19.3953 53.1713 19.5515 53.1072 19.7306 52.9806C19.6763 52.9061 19.5748 52.7531 19.4259 52.5226H19.4263ZM21.1251 53.576C21.0378 53.6315 20.9469 53.6597 20.8532 53.6597C20.6545 53.6597 20.5549 53.5769 20.5549 53.4127C20.5549 53.3182 20.5878 53.2363 20.6536 53.1691C20.7203 53.1015 20.8043 53.0669 20.9058 53.0669C20.9798 53.0669 21.046 53.092 21.1041 53.1427C21.1845 53.0734 21.2242 53.017 21.2242 52.9728C21.2242 52.9265 21.1813 52.8849 21.0958 52.8476C21.0218 52.8186 20.9574 52.8038 20.9017 52.8038C20.8126 52.8038 20.6792 52.8645 20.501 52.9867C20.3228 53.108 20.2337 53.2038 20.2337 53.2731C20.2337 53.4413 20.3063 53.5994 20.4516 53.7472C20.5969 53.8945 20.7591 53.9686 20.9378 53.9686C21.0072 53.9686 21.0725 53.9504 21.1333 53.914C21.1941 53.8776 21.2238 53.8269 21.2238 53.7632C21.2238 53.7112 21.1904 53.6484 21.1246 53.5752L21.1251 53.576Z"
              fill="#009E53"/>
        <path d="M22.4702 52.2691V54.8808L22.1234 54.5393V52.705C22.1234 52.5724 22.0718 52.4645 21.9699 52.3805C21.8675 52.2973 21.7355 52.2626 21.5733 52.2769L21.2119 51.9571C21.3585 51.9393 21.4682 51.9307 21.5413 51.9307C21.8342 51.9307 22.0389 52.0264 22.154 52.2184C22.1234 52.0104 22.1083 51.7586 22.1083 51.4605L22.3052 51.5992C22.3263 51.7053 22.3413 51.7725 22.3509 51.8015C22.3719 51.8479 22.4044 51.8938 22.4469 51.9398H22.8951L23.257 52.2691H22.4702Z"
              fill="#009E53"/>
        <path d="M23.7568 53.1076C23.8496 53.2354 23.8957 53.3399 23.8957 53.4209C23.8957 53.6679 23.7582 53.791 23.4836 53.791C23.1112 53.791 22.9248 53.6272 22.9248 53.3C22.9248 53.1228 22.9938 52.9776 23.1327 52.8632C23.2707 52.7488 23.4329 52.6916 23.6184 52.6916C23.9716 52.6916 24.2818 52.9113 24.5495 53.3507V52.2687H22.7448L22.3802 51.9393H25.3075L25.6872 52.2687H24.916V54.8804L24.7277 54.6511C24.7094 54.3534 24.6953 54.1797 24.6861 54.1303C24.6587 53.9977 24.5865 53.8347 24.47 53.641C24.258 53.2887 24.0204 53.1111 23.7568 53.1076Z"
              fill="#009E53"/>
        <path d="M26.2638 52.3766C26.2483 52.3566 26.2058 52.3207 26.1354 52.2691H25.2157L24.8543 51.9398H26.8262C26.8934 51.9398 26.9629 51.9276 27.0341 51.9008C27.1063 51.8748 27.142 51.8505 27.142 51.8271C27.142 51.7517 27.0259 51.7144 26.7943 51.7144C26.7056 51.7144 26.575 51.7192 26.4027 51.7287C26.23 51.7378 26.1016 51.743 26.0162 51.743C25.8055 51.743 25.6164 51.6993 25.4487 51.613C25.2445 51.5069 25.1417 51.3591 25.1417 51.1715C25.1417 51.1199 25.1682 51.0553 25.2198 50.9791C25.2719 50.9032 25.3235 50.866 25.3756 50.869L25.6232 50.8876C25.4674 50.9752 25.3893 51.0549 25.3893 51.1251C25.3893 51.1845 25.4323 51.236 25.5177 51.2781C25.5876 51.3123 25.6593 51.3292 25.7324 51.3292C25.8055 51.3292 25.9088 51.321 26.0504 51.3049C26.1921 51.2898 26.2994 51.282 26.373 51.282C27.0903 51.282 27.4435 51.5012 27.4348 51.9393H27.7825L28.148 52.2687H26.5649C26.6078 52.309 26.6755 52.3493 26.7673 52.39C26.9784 52.4853 27.1196 52.5651 27.1904 52.6283C27.3435 52.7588 27.4202 52.9321 27.4202 53.1492C27.4202 53.3546 27.3284 53.5236 27.1438 53.6562C27.1164 53.6761 26.9629 53.7554 26.6842 53.8945C26.9766 54.0596 27.3416 54.3253 27.7775 54.6923L27.9105 55.1993C27.5714 54.8518 27.2237 54.5866 26.8669 54.4011C26.522 54.2191 26.1455 54.0839 25.737 53.9972L25.3299 53.2372C25.6415 53.414 25.938 53.5019 26.219 53.5019C26.3776 53.5019 26.5398 53.4642 26.7047 53.3884C26.8911 53.3039 26.9839 53.2038 26.9839 53.0868C26.9839 52.9936 26.9551 52.9126 26.8971 52.8424C26.8395 52.7731 26.765 52.738 26.6741 52.738C26.6439 52.738 26.6147 52.7419 26.5873 52.751C26.5786 52.8693 26.516 52.9754 26.4004 53.0677C26.2848 53.1609 26.1637 53.2073 26.0363 53.2073C25.9449 53.2073 25.8645 53.183 25.7946 53.1336C25.7155 53.0825 25.6762 53.0131 25.6762 52.9269C25.6762 52.783 25.7361 52.66 25.8567 52.556C25.9773 52.4528 26.1126 52.3922 26.2633 52.3753L26.2638 52.3766Z"
              fill="#009E53"/>
        <path d="M31.4642 52.2691V54.8058L31.0973 54.4813L31.1069 52.9481C31.1101 52.8701 31.0548 52.7622 30.9411 52.6253C30.8273 52.4884 30.7313 52.4195 30.6518 52.4195C30.6098 52.4195 30.5609 52.4325 30.5061 52.458C30.4517 52.484 30.4197 52.5131 30.4111 52.5447C30.5454 52.637 30.634 52.7046 30.6765 52.7475C30.7652 52.8368 30.8095 52.9351 30.8095 53.0413C30.8095 53.2783 30.6793 53.3962 30.4207 53.3962C30.2658 53.3962 30.1324 53.3238 30.0232 53.1795C29.913 53.349 29.7668 53.4335 29.5841 53.4335C29.4804 53.4335 29.3931 53.3953 29.3214 53.3191C29.2496 53.2428 29.214 53.154 29.214 53.053C29.214 52.9377 29.2583 52.8255 29.3479 52.7176C29.4379 52.6093 29.5402 52.5347 29.6558 52.4949C29.5973 52.3822 29.5137 52.3146 29.4045 52.2916C29.3552 52.2799 29.2062 52.2756 28.9554 52.2791L28.5894 51.9497H29.2807C29.4091 51.9497 29.5325 51.9861 29.6517 52.0585C29.771 52.1313 29.8546 52.2201 29.9039 52.3254C30.0743 52.062 30.29 51.9307 30.5486 51.9307C30.7016 51.9307 30.9168 52.1439 31.1946 52.5698C31.1444 52.1491 31.1147 51.7764 31.1051 51.451C31.2093 51.5329 31.2952 51.6065 31.3628 51.6733C31.3811 51.8219 31.551 51.9107 31.8722 51.9393L32.24 52.2687H31.4624L31.4642 52.2691Z"
              fill="#009E53"/>
        <path d="M33.9525 51.4505C33.7167 51.3327 33.47 51.2724 33.2109 51.2724C32.9733 51.2724 32.7746 51.3206 32.617 51.4159C32.4182 51.5351 32.3149 51.6455 32.3058 51.7495L32.3931 51.9398H32.8957L33.2621 52.2691H32.4995V54.7868L32.1326 54.4661V52.2691H31.7639L31.3998 51.9398H32.0906C31.9567 51.8249 31.8896 51.7253 31.8896 51.6421C31.8896 51.4635 32.0065 51.2924 32.2418 51.1281C32.4342 50.9929 32.6745 50.9258 32.9647 50.9258C33.5257 50.9258 34.0685 51.1645 34.5935 51.6421L34.7073 51.9398C34.2928 51.6572 34.0406 51.4939 33.9529 51.4505H33.9525Z"
              fill="#009E53"/>
        <path d="M32.7805 52.2691L32.4141 51.9398H35.245L35.6338 52.2691H32.7805Z" fill="#009E53"/>
        <path d="M4.12576 51.9211C5.19947 51.246 6.27363 50.5713 7.3478 49.8961C7.51365 50.0942 7.6827 50.2888 7.85495 50.4794C7.96004 50.596 8.01349 50.7099 8.01578 50.8235C8.01806 50.9374 7.97329 51.0596 7.88191 51.1914C7.79053 51.3231 7.67493 51.4397 7.53467 51.5411C7.40354 51.6351 7.26236 51.7053 7.10975 51.7495C6.95761 51.7933 6.8082 51.8015 6.66199 51.7721C6.70266 51.9129 6.68347 52.0568 6.60534 52.2058C6.52675 52.3553 6.39928 52.4949 6.222 52.6236C6.07899 52.7276 5.93005 52.8077 5.77516 52.8632C5.61981 52.9182 5.48549 52.9451 5.37035 52.9434C5.25612 52.9408 5.14556 52.9135 5.0391 52.8606C4.93356 52.8086 4.82938 52.7258 4.72704 52.6123C4.52281 52.3861 4.32223 52.156 4.12531 51.9215L4.12576 51.9211ZM6.18225 50.9704C6.28414 51.0878 6.38694 51.2057 6.49066 51.3214C6.57564 51.4154 6.64874 51.4744 6.70997 51.4978C6.78947 51.5298 6.87856 51.5337 6.97588 51.5103C7.07274 51.4865 7.17555 51.4362 7.28474 51.36C7.388 51.288 7.4675 51.2113 7.52324 51.1329C7.57944 51.054 7.60137 50.9817 7.58949 50.9171C7.57762 50.8525 7.52187 50.765 7.42318 50.6549C7.3318 50.5526 7.24134 50.4491 7.15133 50.3451C6.82831 50.5535 6.50574 50.7611 6.18225 50.97V50.9704ZM4.70511 51.9228C4.83258 52.071 4.96234 52.218 5.09301 52.3627C5.16063 52.4381 5.21318 52.4871 5.25064 52.5092C5.31598 52.5499 5.38497 52.575 5.45762 52.582C5.5298 52.5893 5.61433 52.5776 5.71074 52.5464C5.80714 52.5152 5.90446 52.465 6.00315 52.3952C6.1192 52.3137 6.20236 52.224 6.25444 52.1287C6.30653 52.032 6.32435 51.9454 6.30881 51.8661C6.29374 51.7872 6.23799 51.6967 6.14524 51.5927C6.03193 51.4665 5.91999 51.3387 5.80897 51.2105C5.44117 51.4479 5.07337 51.6849 4.70511 51.9224V51.9228Z"
              fill="#0071B5"/>
        <path d="M7.14265 53.8005C7.19565 53.8785 7.2491 53.9565 7.30393 54.0341C7.05766 54.1805 6.8283 54.2607 6.6163 54.2715C6.4043 54.2824 6.22383 54.2191 6.07899 54.0804C5.89623 53.9067 5.84963 53.6909 5.94147 53.4413C6.03284 53.1904 6.25855 52.9351 6.61356 52.673C6.98045 52.4008 7.31307 52.2396 7.61097 52.1829C7.90886 52.1274 8.13137 52.1716 8.28489 52.3181C8.43384 52.4602 8.46125 52.6504 8.36941 52.8961C8.27758 53.141 8.06466 53.4075 7.72382 53.6935C7.70326 53.7108 7.67128 53.7364 7.62924 53.771C7.32723 53.4989 7.03116 53.2194 6.74103 52.9325C6.51259 53.1184 6.36912 53.2926 6.31155 53.4551C6.2549 53.6172 6.27866 53.7485 6.38237 53.8469C6.45913 53.9197 6.55965 53.9539 6.68347 53.9496C6.80728 53.9448 6.96034 53.895 7.14265 53.8005ZM7.05492 52.7094C7.27103 52.9234 7.48989 53.1327 7.71331 53.3368C7.87734 53.1878 7.98151 53.0586 8.0272 52.9494C8.09847 52.7817 8.08522 52.6522 7.98745 52.5586C7.89835 52.4736 7.76951 52.4446 7.59909 52.4702C7.42866 52.4957 7.24636 52.5746 7.05492 52.7089V52.7094Z"
              fill="#0071B5"/>
        <path d="M6.74105 54.8981C6.7977 54.9761 6.8539 55.0532 6.91056 55.1304C6.81689 55.2283 6.76709 55.3159 6.76207 55.393C6.75476 55.4966 6.79999 55.5897 6.89822 55.672C7.00422 55.76 7.11707 55.7994 7.23587 55.7903C7.35466 55.7808 7.47939 55.7327 7.6087 55.6469C7.68774 55.594 7.83349 55.4671 8.0464 55.2664C7.77912 55.3475 7.56986 55.3267 7.42502 55.2062C7.24455 55.0554 7.20617 54.8478 7.31217 54.59C7.41863 54.3322 7.61601 54.083 7.90065 53.8408C8.09575 53.6739 8.29724 53.5383 8.5033 53.433C8.7089 53.3273 8.89486 53.2696 9.0598 53.2575C9.2252 53.2454 9.35907 53.2826 9.46324 53.3689C9.60168 53.4841 9.62133 53.6653 9.52538 53.9157C9.60625 53.8403 9.68712 53.7645 9.76753 53.6891C9.82876 53.7376 9.88952 53.7862 9.95075 53.8343C9.3947 54.3655 8.83775 54.8968 8.2817 55.4285C7.98152 55.7158 7.74714 55.9026 7.57808 55.9875C7.40949 56.0737 7.24044 56.1123 7.0723 56.1049C6.90462 56.0976 6.7511 56.036 6.61403 55.9216C6.45092 55.786 6.37507 55.6266 6.3865 55.4472C6.39838 55.2669 6.51763 55.0844 6.74151 54.8977L6.74105 54.8981ZM8.13915 54.0068C7.87415 54.2377 7.71241 54.4344 7.65621 54.5974C7.60001 54.7599 7.62286 54.8838 7.72292 54.967C7.82252 55.0493 7.96553 55.0645 8.15058 55.0099C8.33516 54.9557 8.55173 54.8114 8.8012 54.5774C9.0397 54.3538 9.1859 54.1588 9.24302 53.9929C9.29967 53.8273 9.28322 53.7077 9.19321 53.6332C9.10458 53.5587 8.96888 53.5505 8.78338 53.6055C8.59788 53.661 8.38314 53.7944 8.13961 54.0068H8.13915Z"
              fill="#0071B5"/>
        <path d="M9.25854 56.608C9.34717 56.5127 9.43581 56.4174 9.52491 56.322C9.2165 56.4659 8.96704 56.469 8.78291 56.3359C8.70204 56.2766 8.64767 56.1998 8.62071 56.1054C8.59329 56.0105 8.59558 55.9186 8.62711 55.8293C8.65863 55.7405 8.71483 55.6443 8.7957 55.5416C8.84961 55.4718 8.94511 55.3696 9.08217 55.2348C9.47419 54.8474 9.86529 54.4613 10.2578 54.0739C10.3254 54.1255 10.3939 54.1779 10.4625 54.2282C10.1157 54.5779 9.76889 54.9284 9.42165 55.2781C9.2558 55.4454 9.14842 55.5624 9.09954 55.6274C9.03054 55.7227 8.99536 55.8107 8.99399 55.8935C8.99308 55.9767 9.0278 56.0434 9.09771 56.0937C9.1667 56.1439 9.2558 56.166 9.36454 56.1587C9.47328 56.1517 9.58065 56.1136 9.68665 56.0438C9.79356 55.9745 9.92378 55.8571 10.0787 55.6911C10.4017 55.3444 10.7247 54.9973 11.0482 54.6515C11.1181 54.7001 11.188 54.7491 11.2588 54.7976C10.663 55.4502 10.0677 56.1032 9.47191 56.7558C9.40063 56.7068 9.32935 56.6574 9.25899 56.608H9.25854Z"
              fill="#0071B5"/>
        <path d="M9.83194 56.9989C10.4154 56.3381 10.9989 55.6773 11.5823 55.0156C11.6472 55.058 11.7116 55.1009 11.7769 55.143C11.6943 55.2383 11.612 55.3336 11.5293 55.429C11.655 55.357 11.7769 55.3124 11.8957 55.2946C12.0136 55.2777 12.1146 55.2946 12.2005 55.3484C12.2955 55.4082 12.3485 55.487 12.359 55.588C12.3695 55.6885 12.3421 55.8034 12.2768 55.9325C12.5756 55.7561 12.8054 55.7145 12.9726 55.8116C13.1042 55.887 13.1623 56.001 13.149 56.1565C13.1353 56.3117 13.0407 56.5088 12.8644 56.7489C12.5107 57.2299 12.1571 57.7105 11.8034 58.191C11.7198 58.1455 11.6371 58.0992 11.5549 58.0524C11.8839 57.6151 12.2137 57.1775 12.5432 56.7398C12.6501 56.5981 12.7186 56.4928 12.7506 56.4217C12.7826 56.3515 12.7931 56.2861 12.7826 56.2254C12.7716 56.1652 12.7405 56.1197 12.6875 56.0902C12.593 56.0343 12.4769 56.0374 12.338 56.0954C12.1991 56.1539 12.0456 56.2883 11.877 56.4993C11.5608 56.8954 11.2442 57.2919 10.928 57.6884C10.8467 57.6394 10.7654 57.5904 10.6845 57.5406C11.0436 57.1008 11.4027 56.6605 11.7619 56.2202C11.8866 56.0677 11.9615 55.9407 11.9876 55.8424C12.0136 55.7431 11.9848 55.6686 11.9026 55.6162C11.84 55.5767 11.7605 55.5655 11.6646 55.5815C11.5681 55.598 11.4672 55.6461 11.3598 55.7267C11.2524 55.8077 11.1208 55.939 10.9637 56.1201C10.6662 56.4646 10.3688 56.81 10.0714 57.1541C9.99185 57.1025 9.91235 57.0505 9.83285 56.9981L9.83194 56.9989Z"
              fill="#0071B5"/>
        <path d="M13.006 58.8189C13.663 57.8205 14.32 56.8213 14.9766 55.8224C15.243 55.9533 15.5107 56.0794 15.7812 56.2007C15.9439 56.2731 16.0512 56.355 16.1051 56.4473C16.1586 56.5392 16.1723 56.6666 16.1449 56.8295C16.1175 56.9924 16.0576 57.1597 15.9621 57.3296C15.8397 57.5497 15.6912 57.717 15.5153 57.8292C15.3389 57.941 15.1425 57.9765 14.9268 57.9328C14.9624 58.0134 14.983 58.0875 14.9885 58.1533C14.9981 58.2955 14.9912 58.4632 14.9698 58.656C14.9286 58.9871 14.8925 59.3194 14.8615 59.6527C14.7482 59.6063 14.6344 59.5591 14.5215 59.5114C14.549 59.2566 14.5791 59.0027 14.6125 58.7492C14.6403 58.5299 14.6591 58.36 14.6668 58.24C14.6741 58.12 14.6705 58.0307 14.655 57.9739C14.639 57.9163 14.6166 57.8708 14.585 57.8366C14.5613 57.8127 14.5156 57.7859 14.448 57.7542C14.3465 57.7079 14.2456 57.6602 14.1451 57.6117C13.8581 58.0597 13.5716 58.5069 13.2852 58.9546C13.192 58.9095 13.0988 58.8649 13.0056 58.8189H13.006ZM14.3666 57.2663C14.5499 57.3547 14.7345 57.4405 14.92 57.5237C15.0378 57.577 15.1411 57.5991 15.2293 57.5891C15.3175 57.5792 15.4038 57.5389 15.487 57.4691C15.5692 57.3989 15.6391 57.3135 15.6967 57.2139C15.7803 57.0683 15.8164 56.9339 15.8077 56.8126C15.7981 56.6913 15.7259 56.6007 15.5898 56.5396C15.3938 56.4512 15.1991 56.3611 15.0054 56.2688C14.7925 56.6011 14.5796 56.9339 14.3666 57.2659V57.2663Z"
              fill="#0071B5"/>
        <path d="M15.6222 58.5841C15.8479 58.1668 16.0896 57.8886 16.3427 57.7447C16.5534 57.6255 16.7434 57.5982 16.9189 57.6637C17.1135 57.7356 17.2222 57.8959 17.2506 58.1481C17.2789 58.3995 17.2113 58.7093 17.0422 59.0759C16.9052 59.3727 16.7681 59.5963 16.6283 59.7454C16.4889 59.8945 16.3377 59.9954 16.1764 60.0479C16.0147 60.0994 15.8634 60.0994 15.725 60.0479C15.5029 59.9651 15.3768 59.7935 15.3503 59.5383C15.3238 59.2826 15.4166 58.965 15.6222 58.5845V58.5841ZM15.8854 58.6872C15.7337 58.9758 15.6615 59.2081 15.6725 59.3853C15.683 59.5617 15.7552 59.6761 15.8863 59.725C16.016 59.7736 16.1609 59.7402 16.318 59.6254C16.4752 59.5101 16.6237 59.3008 16.7667 59.0014C16.901 58.7184 16.9614 58.4896 16.9509 58.3145C16.9399 58.1395 16.8759 58.0307 16.7571 57.9856C16.636 57.9414 16.4994 57.9748 16.345 58.0875C16.191 58.1993 16.0366 58.399 15.8849 58.6876L15.8854 58.6872Z"
              fill="#0071B5"/>
        <path d="M16.8193 60.3772C17.2972 59.3051 17.7746 58.233 18.253 57.1614C18.3302 57.187 18.4079 57.2125 18.486 57.2372C18.2206 57.8504 17.9556 58.464 17.6906 59.0772C18.0269 58.8254 18.3554 58.5684 18.6752 58.3067C18.7816 58.3388 18.8881 58.37 18.995 58.3999C18.6999 58.6395 18.3974 58.8752 18.0876 59.1066C18.0931 59.6643 18.1132 60.2242 18.1493 60.7854C18.0396 60.7546 17.9304 60.723 17.8212 60.6905C17.803 60.2333 17.7943 59.777 17.7957 59.3224C17.6942 59.3961 17.5923 59.4689 17.4895 59.5421C17.357 59.8498 17.2236 60.1579 17.0907 60.466C17.0002 60.4365 16.9097 60.4071 16.8197 60.3772H16.8193Z"
              fill="#0071B5"/>
        <path d="M19.7626 60.3529C19.848 60.3932 19.9344 60.434 20.0207 60.4743C19.901 60.7113 19.7589 60.8842 19.5922 60.9908C19.4263 61.0978 19.2454 61.1277 19.0526 61.0796C18.81 61.019 18.6555 60.8608 18.5943 60.6095C18.5326 60.3581 18.5765 60.0405 18.7209 59.6557C18.8698 59.2588 19.0517 58.9684 19.2618 58.783C19.472 58.5984 19.6762 58.5312 19.88 58.5832C20.0778 58.633 20.2039 58.7799 20.2638 59.0274C20.3237 59.2748 20.2962 59.5981 20.1761 59.9946C20.1683 60.0184 20.1569 60.0544 20.1414 60.1025C19.7471 60.0136 19.3546 59.9174 18.9648 59.813C18.8812 60.0747 18.8598 60.2862 18.9018 60.4483C18.9434 60.6099 19.0343 60.7083 19.1714 60.7429C19.2732 60.7685 19.3738 60.7507 19.4715 60.6892C19.5689 60.6281 19.6662 60.5154 19.7626 60.3525V60.3529ZM19.0973 59.4806C19.3879 59.5582 19.6799 59.6314 19.9728 59.6999C20.0235 59.4984 20.0381 59.342 20.0157 59.2297C19.9824 59.056 19.901 58.9537 19.7704 58.9212C19.6525 58.8913 19.5319 58.9268 19.408 59.0278C19.2838 59.1283 19.18 59.2791 19.0973 59.4806Z"
              fill="#0071B5"/>
        <path d="M19.8704 62.2015C19.8937 62.0728 19.9166 61.9437 19.9403 61.8146C19.9974 61.8527 20.0491 61.8765 20.097 61.8865C20.1615 61.9004 20.2186 61.896 20.2656 61.8731C20.3132 61.8505 20.3566 61.8141 20.3963 61.7647C20.426 61.727 20.4831 61.6304 20.5676 61.4761C20.5791 61.454 20.5964 61.4224 20.6202 61.3804C20.6334 60.528 20.6672 59.6791 20.7225 58.8324C20.8116 58.8519 20.9012 58.8709 20.9903 58.89C20.9597 59.3719 20.9368 59.8546 20.9195 60.3378C20.9135 60.5219 20.9026 60.7148 20.8856 60.9154C20.9638 60.7516 21.0474 60.5839 21.1374 60.4114C21.3727 59.9595 21.6007 59.5062 21.8218 59.0503C21.9118 59.0659 22.0014 59.0815 22.0914 59.0971C21.7154 59.8953 21.3179 60.6892 20.8994 61.4766C20.7614 61.727 20.6577 61.8982 20.5914 61.9905C20.5032 62.1144 20.415 62.2002 20.3287 62.2492C20.2419 62.2977 20.1496 62.312 20.0527 62.2912C19.9938 62.2791 19.9335 62.2492 19.8709 62.2011L19.8704 62.2015Z"
              fill="#0071B5"/>
        <path d="M22.9042 61.4341C22.7827 61.5515 22.6671 61.6304 22.5602 61.6711C22.4528 61.711 22.3427 61.7227 22.2303 61.7066C22.0452 61.6793 21.9169 61.5914 21.8469 61.4445C21.777 61.2976 21.7661 61.1217 21.8113 60.9171C21.8378 60.798 21.8798 60.6909 21.9374 60.5973C21.995 60.5042 22.0589 60.4327 22.1293 60.3811C22.1997 60.3304 22.2732 60.2953 22.3514 60.2749C22.4089 60.261 22.4925 60.2524 22.6031 60.2476C22.827 60.2385 22.9951 60.2112 23.1066 60.1683C23.1171 60.1124 23.124 60.0765 23.1267 60.0617C23.155 59.8936 23.1505 59.7718 23.113 59.6973C23.0618 59.5954 22.9709 59.5356 22.8393 59.5174C22.7164 59.5001 22.6191 59.5213 22.546 59.5824C22.4734 59.6431 22.4048 59.7593 22.3395 59.9309C22.2559 59.8979 22.1727 59.8645 22.0896 59.8303C22.1512 59.6596 22.2207 59.5252 22.2965 59.4256C22.3728 59.3268 22.466 59.2561 22.5771 59.2128C22.6881 59.1703 22.8083 59.1573 22.9389 59.1755C23.0682 59.1933 23.1692 59.2319 23.2419 59.2921C23.3145 59.3528 23.3638 59.4221 23.3899 59.5018C23.4164 59.582 23.4278 59.6808 23.4255 59.7978C23.4228 59.8706 23.4068 59.9989 23.3771 60.1835C23.3479 60.3676 23.3182 60.5522 23.2889 60.7364C23.2272 61.1229 23.1939 61.3678 23.1898 61.4735C23.1847 61.5797 23.193 61.6824 23.214 61.7825C23.1148 61.7708 23.0157 61.7587 22.9165 61.747C22.8978 61.656 22.8942 61.5515 22.9042 61.4341ZM23.0513 60.4998C22.9412 60.5484 22.7822 60.5808 22.5743 60.596C22.4564 60.6042 22.371 60.6198 22.3175 60.6432C22.2645 60.6662 22.2189 60.7061 22.1809 60.7607C22.143 60.8162 22.1161 60.879 22.1014 60.9509C22.0781 61.0606 22.0873 61.1567 22.1298 61.2386C22.1713 61.321 22.2481 61.3699 22.3587 61.386C22.4679 61.4016 22.572 61.3812 22.6698 61.3227C22.7681 61.2646 22.8466 61.1775 22.9074 61.0605C22.954 60.9713 22.9924 60.8348 23.0239 60.6519C23.0331 60.6008 23.0422 60.5505 23.0513 60.4998Z"
              fill="#0071B5"/>
        <path d="M26.1655 58.5424C26.2587 58.5455 26.3519 58.5476 26.4451 58.5494C26.4278 59.2128 26.41 59.8762 26.3931 60.5401C26.3844 60.8863 26.3515 61.1606 26.2935 61.3634C26.2354 61.5658 26.1354 61.7292 25.991 61.8531C25.8471 61.9762 25.6597 62.0338 25.4327 62.0234C25.212 62.0126 25.0347 61.9463 24.9059 61.8271C24.7761 61.7071 24.6925 61.5394 24.6546 61.3253C24.6171 61.1108 24.618 60.8218 24.6555 60.4582C24.7226 59.7974 24.7903 59.1357 24.8574 58.4753C24.9506 58.4822 25.0438 58.4891 25.1366 58.4948C25.0781 59.156 25.0196 59.8164 24.9607 60.4777C24.9346 60.7763 24.9324 60.9973 24.9561 61.1407C24.9799 61.2846 25.0324 61.3977 25.1151 61.4791C25.1978 61.5615 25.3034 61.6052 25.4322 61.6117C25.6529 61.6221 25.8137 61.5515 25.9129 61.4024C26.0125 61.2538 26.07 60.9635 26.0865 60.5306C26.1125 59.8684 26.1386 59.2054 26.1651 58.5429L26.1655 58.5424Z"
              fill="#0071B5"/>
        <path d="M26.8331 61.9987C26.8381 61.1676 26.8436 60.3365 26.8491 59.5053C26.9276 59.5053 27.0053 59.5053 27.0835 59.5053C27.0835 59.6232 27.0844 59.7415 27.0844 59.8602C27.1977 59.589 27.3562 59.4529 27.5673 59.4486C27.6591 59.4468 27.7437 59.4715 27.8232 59.5235C27.9027 59.5751 27.963 59.644 28.0055 59.7302C28.048 59.8165 28.0804 59.9192 28.1023 60.0388C28.116 60.1163 28.1275 60.2528 28.1371 60.4478C28.1631 60.957 28.1882 61.467 28.2138 61.9766C28.1142 61.9805 28.0146 61.9836 27.9145 61.9857C27.8958 61.4826 27.8766 60.9791 27.8574 60.4751C27.8506 60.3031 27.8355 60.1757 27.8127 60.0912C27.7894 60.0067 27.7505 59.94 27.698 59.8901C27.6445 59.8403 27.5842 59.8165 27.5148 59.8178C27.4042 59.8199 27.311 59.8784 27.231 59.9924C27.152 60.1068 27.1122 60.3226 27.1131 60.6407C27.1154 61.0931 27.1182 61.5459 27.12 61.9983C27.025 61.9983 26.9295 61.9983 26.834 61.9983L26.8331 61.9987Z"
              fill="#0071B5"/>
        <path d="M28.4541 58.9975C28.4432 58.838 28.4322 58.6781 28.4217 58.5186C28.503 58.5143 28.5853 58.5104 28.668 58.5052C28.6803 58.6647 28.6931 58.8241 28.7059 58.984C28.6223 58.9888 28.5382 58.9936 28.4546 58.9975H28.4541ZM28.6556 61.9576C28.599 61.1277 28.5423 60.2979 28.4857 59.4681C28.5716 59.4637 28.6574 59.4594 28.7433 59.4542C28.8096 60.2832 28.8754 61.1126 28.9416 61.9415C28.8466 61.9472 28.7511 61.9524 28.6556 61.9571V61.9576Z"
              fill="#0071B5"/>
        <path d="M29.844 61.8761C29.5329 61.0679 29.2432 60.255 28.9755 59.4395C29.0668 59.4334 29.1582 59.4264 29.2501 59.4195C29.4118 59.907 29.5809 60.3928 29.7581 60.8781C29.8152 61.035 29.8705 61.1988 29.9249 61.3682C29.9345 61.2352 29.9491 61.0748 29.971 60.8876C30.025 60.3724 30.072 59.8572 30.1113 59.342C30.2022 59.3324 30.2932 59.322 30.3845 59.3116C30.327 60.1566 30.2484 61.0029 30.1479 61.8488C30.0469 61.8583 29.9455 61.8679 29.844 61.8765V61.8761Z"
              fill="#0071B5"/>
        <path d="M31.9965 60.7906C32.0938 60.7954 32.192 60.7997 32.2898 60.8036C32.3012 61.0614 32.2601 61.2703 32.1651 61.4289C32.07 61.5875 31.9229 61.682 31.726 61.711C31.4783 61.7461 31.2604 61.6616 31.0786 61.4588C30.8972 61.2556 30.777 60.9527 30.713 60.5527C30.6459 60.1384 30.6632 59.8095 30.7569 59.5647C30.8519 59.319 31.0009 59.1829 31.2097 59.1526C31.4121 59.1236 31.5994 59.2089 31.7785 59.4096C31.9567 59.6111 32.0952 59.9109 32.1865 60.3135C32.1925 60.3378 32.2002 60.3746 32.2103 60.424C31.8119 60.4916 31.4107 60.5505 31.0096 60.6025C31.0667 60.8695 31.1535 61.0688 31.2723 61.1988C31.3915 61.3288 31.5222 61.3834 31.6625 61.3635C31.7666 61.3483 31.8475 61.2946 31.9046 61.2027C31.9613 61.1108 31.9919 60.9735 31.996 60.7902L31.9965 60.7906ZM30.9607 60.2533C31.2604 60.2143 31.5583 60.1718 31.8557 60.1246C31.7995 59.9239 31.7337 59.7779 31.6574 59.6847C31.5391 59.5404 31.4153 59.4785 31.2814 59.498C31.1603 59.5157 31.0708 59.592 31.0105 59.7294C30.9497 59.8663 30.9328 60.0409 30.9602 60.2533H30.9607Z"
              fill="#0071B5"/>
        <path d="M32.8125 61.4813C32.6142 60.668 32.4159 59.8542 32.219 59.0408C32.2916 59.0278 32.3638 59.0139 32.4369 59.0009C32.4684 59.1253 32.5 59.2501 32.5315 59.3753C32.5475 59.1912 32.5712 59.0668 32.6064 59.0022C32.6407 58.9377 32.6877 58.9 32.7471 58.8878C32.8326 58.8709 32.9299 58.8956 33.0427 58.9632C33.0491 59.0967 33.0546 59.2293 33.0597 59.3619C32.982 59.3194 32.9134 59.303 32.8522 59.3155C32.7974 59.3264 32.7549 59.3632 32.7252 59.4256C32.6955 59.488 32.6832 59.5695 32.6887 59.6687C32.6973 59.8212 32.7243 59.9833 32.7682 60.1579C32.8764 60.5822 32.9847 61.0055 33.093 61.4298C32.9998 61.4475 32.9052 61.4644 32.812 61.4813H32.8125Z"
              fill="#0071B5"/>
        <path d="M33.57 60.5601C33.6591 60.5202 33.7473 60.4812 33.8359 60.4409C33.898 60.5982 33.9757 60.7122 34.068 60.7828C34.1608 60.8534 34.2686 60.8747 34.3888 60.8456C34.5098 60.8179 34.588 60.7577 34.6209 60.6693C34.6547 60.5796 34.6542 60.4842 34.6209 60.3837C34.5907 60.2936 34.5386 60.2294 34.4637 60.1917C34.4121 60.1657 34.3056 60.1428 34.1475 60.1211C33.9332 60.0903 33.7815 60.0539 33.6915 60.0149C33.6011 59.9764 33.5229 59.9118 33.4571 59.8217C33.3904 59.7328 33.3411 59.6284 33.3073 59.5101C33.2762 59.4026 33.263 59.2999 33.2666 59.2011C33.2716 59.1023 33.2904 59.0183 33.3246 58.9455C33.3502 58.8904 33.3909 58.8384 33.448 58.7912C33.5056 58.744 33.5718 58.711 33.6486 58.6928C33.7633 58.666 33.8725 58.669 33.978 58.7019C34.0835 58.7353 34.1726 58.7925 34.2462 58.8744C34.3193 58.9567 34.391 59.0737 34.4605 59.2241C34.3782 59.2661 34.2946 59.3082 34.2115 59.3493C34.1598 59.2276 34.095 59.1387 34.02 59.0815C33.9442 59.0248 33.8592 59.0079 33.7633 59.03C33.6499 59.0568 33.5787 59.1054 33.5481 59.1777C33.5179 59.2501 33.5152 59.3268 33.5394 59.4087C33.5554 59.4611 33.5796 59.5066 33.6129 59.543C33.6458 59.5825 33.6892 59.6111 33.7422 59.6288C33.7719 59.6384 33.8569 59.6557 33.999 59.68C34.2028 59.7146 34.3517 59.7458 34.4463 59.7753C34.5391 59.8052 34.6245 59.8607 34.7004 59.9417C34.7771 60.0236 34.8397 60.1328 34.8872 60.2706C34.9343 60.4049 34.9521 60.5388 34.9402 60.6714C34.9288 60.804 34.8831 60.9154 34.8041 61.0055C34.725 61.0957 34.6209 61.1563 34.4929 61.1867C34.2809 61.2365 34.0986 61.207 33.9492 61.0996C33.7994 60.993 33.6733 60.8123 33.57 60.5605V60.5601Z"
              fill="#0071B5"/>
        <path d="M34.4404 58.0571C34.3846 57.9042 34.3298 57.7512 34.2741 57.5987C34.3531 57.5774 34.4317 57.5558 34.5108 57.5337C34.5679 57.6862 34.625 57.8379 34.6825 57.9904C34.6021 58.0129 34.5213 58.0346 34.4404 58.0571ZM35.4684 60.8864C35.1801 60.0929 34.8918 59.2995 34.604 58.5065C34.6862 58.4835 34.7684 58.4614 34.8511 58.438C35.149 59.2289 35.446 60.0197 35.7435 60.811C35.6516 60.8361 35.5602 60.8617 35.4689 60.8864H35.4684Z"
              fill="#0071B5"/>
        <path d="M36.612 60.154C36.6732 60.2675 36.7354 60.3802 36.798 60.4933C36.7299 60.5418 36.665 60.5752 36.6038 60.5943C36.5033 60.625 36.4151 60.6263 36.3415 60.5969C36.2671 60.5678 36.2036 60.5193 36.1515 60.4513C36.0989 60.3824 36.0245 60.2285 35.929 59.988C35.7489 59.5352 35.5685 59.0815 35.388 58.6287C35.3272 58.646 35.2665 58.6638 35.2062 58.6815C35.1659 58.5784 35.1262 58.4753 35.0864 58.3726C35.1458 58.3552 35.2057 58.3379 35.2651 58.3206C35.1879 58.1256 35.1107 57.9314 35.033 57.7364C35.081 57.6333 35.1267 57.5297 35.1728 57.4262C35.2857 57.6996 35.398 57.973 35.5109 58.2465C35.5959 58.2209 35.6813 58.1945 35.7668 58.1672C35.8097 58.2694 35.854 58.3713 35.897 58.4731C35.8106 58.5004 35.7243 58.5268 35.6375 58.5533C35.8262 59.0126 36.0158 59.4724 36.2045 59.9313C36.252 60.0457 36.2867 60.1176 36.3096 60.1466C36.3329 60.1765 36.3594 60.1978 36.3895 60.2099C36.4197 60.222 36.4558 60.222 36.4973 60.2086C36.528 60.1995 36.5668 60.1813 36.6134 60.1544L36.612 60.154Z"
              fill="#0071B5"/>
        <path d="M37.4102 61.3153C37.344 61.1979 37.2782 61.0805 37.2124 60.963C37.2846 60.9674 37.344 60.9609 37.3901 60.9453C37.4523 60.9249 37.4966 60.8933 37.5212 60.8517C37.545 60.8097 37.5573 60.7581 37.5578 60.6978C37.5578 60.6532 37.5404 60.5453 37.508 60.3768C37.503 60.3529 37.497 60.3182 37.4884 60.2715C36.9351 59.566 36.4014 58.8506 35.8865 58.1282C35.9733 58.1 36.0592 58.0714 36.1455 58.0432C36.4398 58.454 36.74 58.8622 37.0465 59.2678C37.1635 59.4221 37.2818 59.5859 37.4002 59.7593C37.3568 59.5864 37.3152 59.4065 37.2764 59.2215C37.1722 58.7336 37.0612 58.2487 36.9433 57.7646C37.0287 57.7334 37.1137 57.7022 37.1991 57.6693C37.4157 58.5121 37.6108 59.3602 37.784 60.213C37.8356 60.4873 37.863 60.6788 37.8689 60.7871C37.8776 60.9323 37.8612 61.0458 37.8214 61.129C37.7817 61.2114 37.7145 61.269 37.6209 61.2997C37.5642 61.3192 37.4938 61.324 37.4102 61.3149V61.3153Z"
              fill="#0071B5"/>
        <path d="M38.4021 59.9378C38.3277 59.7913 38.2527 59.6444 38.1783 59.4984C38.2774 59.4607 38.3761 59.4226 38.4748 59.3844C38.5511 59.5296 38.6278 59.6756 38.7046 59.8212C38.7905 59.9833 38.8408 60.1215 38.8554 60.2364C38.8705 60.3503 38.8513 60.4509 38.7969 60.5371C38.7453 60.4942 38.6936 60.4513 38.6429 60.4088C38.6749 60.3525 38.6845 60.2832 38.6726 60.2034C38.6594 60.1228 38.6201 60.0149 38.5534 59.8806C38.5031 59.9001 38.4533 59.9196 38.4026 59.9382L38.4021 59.9378Z"
              fill="#0071B5"/>
        <path d="M40.0511 59.2553C39.4375 58.2361 38.8243 57.2169 38.2107 56.1973C38.4807 56.0759 38.7489 55.9498 39.0148 55.8194C39.1747 55.7405 39.3136 55.7063 39.4333 55.7171C39.5521 55.7275 39.6833 55.7865 39.8267 55.8948C39.9716 56.0023 40.1004 56.1366 40.2151 56.2987C40.3627 56.5071 40.444 56.706 40.4563 56.8954C40.4691 57.0847 40.3947 57.2468 40.2343 57.3794C40.333 57.398 40.4161 57.4232 40.4828 57.4548C40.6268 57.525 40.7862 57.6199 40.963 57.7408C41.2632 57.9501 41.5675 58.1559 41.8759 58.3587C41.7676 58.4168 41.6593 58.4736 41.5506 58.5308C41.3176 58.3726 41.0864 58.2131 40.858 58.0515C40.6592 57.9124 40.5043 57.8067 40.391 57.736C40.2782 57.6663 40.19 57.6195 40.126 57.6004C40.0616 57.5805 40.0045 57.5727 39.9542 57.5766C39.9181 57.5809 39.8665 57.5995 39.8002 57.6316C39.6993 57.6797 39.5983 57.7274 39.4973 57.7742C39.776 58.2257 40.0547 58.6768 40.3343 59.1279C40.2402 59.1712 40.1461 59.2141 40.052 59.2562L40.0511 59.2553ZM39.2812 57.4253C39.4658 57.34 39.6499 57.2524 39.8322 57.1632C39.9487 57.1068 40.0259 57.0427 40.0652 56.9729C40.1036 56.9032 40.1123 56.8187 40.089 56.7207C40.0661 56.6224 40.0214 56.5253 39.956 56.4291C39.8596 56.2891 39.7491 56.1908 39.6252 56.131C39.5023 56.072 39.374 56.0759 39.241 56.1418C39.0486 56.2367 38.854 56.3294 38.6598 56.4187C38.8668 56.7541 39.0738 57.0899 39.2812 57.4249V57.4253Z"
              fill="#0071B5"/>
        <path d="M42.872 57.4244C42.8729 57.5839 42.8487 57.7113 42.7993 57.8058C42.75 57.8998 42.6759 57.9756 42.5782 58.0315C42.4164 58.1234 42.2492 58.1368 42.0797 58.0714C41.9102 58.0068 41.7622 57.8851 41.6338 57.7087C41.5593 57.6056 41.5063 57.5024 41.4757 57.3997C41.4455 57.297 41.4364 57.206 41.4487 57.1267C41.4615 57.047 41.4889 56.9764 41.5323 56.9153C41.5648 56.8706 41.621 56.8134 41.7009 56.7432C41.8631 56.6011 41.9691 56.4789 42.0198 56.3805C41.9828 56.3329 41.96 56.303 41.9499 56.2904C41.8385 56.1509 41.7384 56.0651 41.6498 56.0334C41.5301 55.9901 41.414 56.0018 41.2993 56.0681C41.1929 56.1301 41.1367 56.2037 41.1289 56.2921C41.122 56.3805 41.1622 56.5066 41.2495 56.6713C41.1595 56.6977 41.0704 56.7233 40.9804 56.7489C40.8918 56.5868 40.8369 56.4473 40.8155 56.329C40.7944 56.2111 40.8086 56.1028 40.8584 56.0048C40.9082 55.9065 40.9895 55.8246 41.1019 55.7587C41.2148 55.6937 41.3217 55.6603 41.425 55.6603C41.5273 55.6603 41.621 55.6811 41.7046 55.7232C41.7882 55.7656 41.8759 55.8302 41.9668 55.9169C42.0217 55.9715 42.1126 56.075 42.2364 56.2276C42.3607 56.3792 42.485 56.5313 42.6092 56.6834C42.8688 57.0019 43.0387 57.2008 43.1191 57.2801C43.2 57.3603 43.2882 57.4305 43.3832 57.4899C43.2982 57.5423 43.2142 57.5939 43.1292 57.645C43.0419 57.5904 42.9565 57.5167 42.8706 57.4244H42.872ZM42.2419 56.6553C42.1971 56.758 42.1021 56.878 41.9554 57.0145C41.8732 57.0921 41.8206 57.1545 41.7992 57.2043C41.7777 57.2537 41.7736 57.3096 41.7891 57.3724C41.8042 57.4353 41.8334 57.4972 41.8796 57.5588C41.9495 57.6528 42.0326 57.7178 42.1295 57.7516C42.2268 57.7858 42.3237 57.7759 42.4205 57.7204C42.5151 57.6658 42.5777 57.5874 42.6051 57.486C42.6335 57.3846 42.6239 57.2728 42.5773 57.151C42.5412 57.0574 42.4626 56.9348 42.3406 56.7822C42.3072 56.7398 42.2739 56.6973 42.241 56.6548L42.2419 56.6553Z"
              fill="#0071B5"/>
        <path d="M43.6798 57.3053C43.1127 56.6336 42.5453 55.9624 41.9783 55.2907C42.0432 55.2491 42.1085 55.2075 42.1743 55.1651C42.2556 55.26 42.3374 55.3549 42.4192 55.4493C42.3273 55.1716 42.3666 54.9761 42.5403 54.8587C42.6152 54.8071 42.7038 54.7811 42.8062 54.7798C42.9085 54.7785 43.0067 54.8006 43.1018 54.8466C43.1968 54.8929 43.2946 54.9584 43.3951 55.0424C43.46 55.0979 43.5637 55.201 43.7063 55.3531C44.0782 55.7488 44.4501 56.1453 44.8215 56.5418C44.7402 56.599 44.6589 56.6557 44.5776 56.7121C44.2148 56.3173 43.8525 55.9225 43.4897 55.5273C43.3663 55.3921 43.2658 55.2985 43.1881 55.2431C43.11 55.1876 43.0314 55.1547 42.9537 55.1438C42.8752 55.133 42.8071 55.146 42.7509 55.1846C42.6595 55.2457 42.6207 55.3436 42.633 55.4784C42.6449 55.6136 42.7605 55.809 42.9807 56.0638C43.2941 56.4265 43.6076 56.7892 43.9205 57.1523C43.8406 57.2039 43.7611 57.255 43.6807 57.3057L43.6798 57.3053Z"
              fill="#0071B5"/>
        <path d="M45.2789 56.4702C45.3712 56.4291 45.4635 56.3875 45.5558 56.345C45.6609 56.4343 45.7568 56.485 45.8441 56.4958C45.9619 56.5118 46.0721 56.4806 46.1735 56.4026C46.2827 56.3194 46.3361 56.225 46.3352 56.1214C46.3334 56.0183 46.2882 55.9069 46.2004 55.7877C46.1465 55.7162 46.0127 55.5789 45.7997 55.3791C45.871 55.6166 45.8308 55.7947 45.6814 55.9095C45.495 56.0525 45.2551 56.0672 44.9696 55.9528C44.6835 55.8389 44.4149 55.6473 44.159 55.3813C43.984 55.1993 43.8442 55.0142 43.7387 54.8283C43.6327 54.6424 43.5797 54.4778 43.5779 54.3352C43.5769 54.1918 43.6295 54.08 43.7369 53.9976C43.8794 53.8884 44.0882 53.8863 44.3683 53.989C44.2883 53.9136 44.2079 53.8373 44.1275 53.7615C44.1887 53.7129 44.249 53.664 44.3094 53.6154C44.875 54.1398 45.4402 54.6641 46.0054 55.188C46.3101 55.4714 46.5057 55.6889 46.5897 55.8423C46.6738 55.9957 46.7058 56.1448 46.6829 56.2891C46.6605 56.4334 46.5792 56.5612 46.4371 56.6691C46.2685 56.7974 46.0821 56.849 45.8779 56.8234C45.6736 56.7978 45.4744 56.6791 45.2784 56.4698L45.2789 56.4702ZM44.3646 55.1915C44.6086 55.4393 44.8211 55.5958 45.0025 55.6577C45.1839 55.7201 45.3269 55.7115 45.4306 55.6322C45.5325 55.5533 45.5608 55.4311 45.5133 55.2677C45.4658 55.1039 45.3168 54.9042 45.0696 54.6697C44.832 54.4448 44.6196 54.3027 44.4345 54.2403C44.2481 54.1775 44.1106 54.1814 44.0174 54.2524C43.9265 54.3226 43.9055 54.4392 43.9553 54.603C44.0051 54.7668 44.1412 54.9631 44.3651 55.1915H44.3646Z"
              fill="#0071B5"/>
        <path d="M47.3642 55.8571C46.4431 55.0294 45.5224 54.2018 44.6013 53.3745C44.6612 53.3247 44.7206 53.274 44.78 53.2237C44.87 53.3026 44.9595 53.381 45.0491 53.4603C44.9888 53.3321 44.9591 53.2224 44.9604 53.1306C44.9618 53.0391 44.9997 52.9598 45.0747 52.8935C45.1734 52.8064 45.3045 52.767 45.4712 52.7735C45.638 52.7804 45.8235 52.8337 46.0305 52.9334C46.2375 53.0335 46.4412 53.1626 46.6423 53.3238C46.8584 53.4967 47.0302 53.6735 47.1563 53.8542C47.2833 54.0354 47.3477 54.2039 47.3495 54.3599C47.3518 54.5151 47.302 54.6381 47.2029 54.7261C47.1293 54.7911 47.0393 54.8271 46.9319 54.8349C46.8246 54.8435 46.7154 54.8305 46.6034 54.7963C46.9329 55.0858 47.2618 55.3752 47.5912 55.6651C47.5163 55.7297 47.44 55.7934 47.3637 55.8571H47.3642ZM45.792 54.1316C46.0492 54.3578 46.2726 54.4986 46.4632 54.5484C46.6542 54.5991 46.7981 54.5814 46.8931 54.4969C46.9904 54.4111 47.0073 54.2824 46.9438 54.1121C46.8799 53.9413 46.7085 53.7433 46.4307 53.5154C46.1671 53.2987 45.9377 53.1652 45.7449 53.1124C45.5521 53.0604 45.4137 53.0716 45.3273 53.1479C45.2419 53.2237 45.2346 53.3481 45.3036 53.5249C45.3726 53.7008 45.5338 53.9032 45.792 54.1311V54.1316Z"
              fill="#0071B5"/>
        <path d="M48.7673 53.1414C48.6581 53.0634 48.5493 52.9858 48.4401 52.9074C48.5982 53.1808 48.5941 53.4027 48.4324 53.5656C48.3611 53.6371 48.2688 53.6865 48.1582 53.7104C48.0472 53.7338 47.9394 53.732 47.8361 53.7047C47.7329 53.6766 47.6223 53.6267 47.504 53.5565C47.4245 53.5089 47.3089 53.4244 47.1544 53.3043C46.7131 52.9603 46.2722 52.6158 45.8313 52.2704C45.8934 52.211 45.9551 52.1504 46.0163 52.0897C46.4156 52.3952 46.8154 52.7003 47.2148 53.0053C47.4053 53.1514 47.5387 53.2458 47.6132 53.2887C47.7224 53.3494 47.8256 53.3806 47.9216 53.381C48.0184 53.381 48.0979 53.3503 48.1592 53.2887C48.2195 53.2272 48.2483 53.1483 48.2432 53.0517C48.2396 52.9555 48.1966 52.8602 48.1199 52.7666C48.0422 52.6721 47.9083 52.5568 47.7187 52.4216C47.3221 52.1374 46.9265 51.8531 46.5303 51.5688C46.5897 51.5064 46.6496 51.4427 46.709 51.379C47.4555 51.9034 48.2016 52.4268 48.9482 52.9503C48.8879 53.014 48.8281 53.0781 48.7677 53.1418L48.7673 53.1414Z"
              fill="#0071B5"/>
        <path d="M49.2507 52.6196C48.4936 52.1074 47.737 51.5952 46.9799 51.083C47.0302 51.0271 47.0804 50.9712 47.1302 50.9153C47.2477 50.9925 47.3646 51.0705 47.482 51.148C47.3605 50.9942 47.2902 50.8815 47.2714 50.8092C47.2527 50.7368 47.2637 50.677 47.3034 50.6306C47.3614 50.5635 47.461 50.5214 47.6022 50.5028C47.7046 50.6033 47.806 50.7034 47.907 50.8048C47.8119 50.82 47.7439 50.8516 47.7018 50.8997C47.6644 50.9426 47.6575 50.9981 47.6785 51.0661C47.6995 51.1337 47.7489 51.2048 47.8266 51.2793C47.9449 51.3929 48.0852 51.5038 48.2487 51.6121C48.6471 51.8756 49.0456 52.1395 49.4435 52.403C49.38 52.4753 49.3151 52.5477 49.2507 52.6196Z"
              fill="#0071B5"/>
    </g>
    <defs>
        <clipPath id="clip0_1_197">
            <rect width="53" height="65" fill="white"/>
        </clipPath>
    </defs>
</svg>
